{"glyphs":{"0":{"ha":1119,"x_min":-17,"x_max":1034,"o":"m 475 -14 q 126 130 270 -14 q -17 475 -17 273 q 126 820 -17 676 q 475 963 270 963 l 543 963 q 891 820 747 963 q 1034 475 1034 676 q 891 130 1034 273 q 543 -14 747 -14 l 475 -14 m 543 183 q 746 268 661 183 q 831 475 831 353 q 746 681 831 596 q 543 766 661 766 l 475 766 q 272 681 357 766 q 186 475 186 596 q 272 268 186 353 q 475 183 357 183 l 543 183 z "},"1":{"ha":441,"x_min":-17,"x_max":356,"o":"m 356 963 l 356 -14 l 297 -14 l 153 131 l 153 766 l -17 766 l -17 819 l 127 963 l 356 963 z "},"2":{"ha":983,"x_min":-17,"x_max":899,"o":"m 271 393 q 212 363 238 393 q 186 288 186 333 l 186 183 l 899 183 l 899 131 l 754 -14 l -17 -14 l -17 271 q 67 472 -17 389 q 271 556 151 556 l 610 556 q 669 586 644 556 q 695 661 695 616 q 669 736 695 707 q 610 766 644 766 l -17 766 l -17 819 l 127 963 l 610 963 q 815 879 731 963 q 899 678 899 795 q 815 477 899 561 q 610 393 731 393 l 271 393 z "},"3":{"ha":983,"x_min":-17,"x_max":899,"o":"m 812 475 l 814 473 q 899 271 899 389 q 815 70 899 154 q 610 -14 731 -14 l 127 -14 l -17 131 l -17 183 l 610 183 q 669 213 644 183 q 695 288 695 243 q 669 363 695 333 q 610 393 644 393 l 220 393 l 220 446 l 331 556 l 610 556 q 669 586 644 556 q 695 661 695 616 q 669 736 695 707 q 610 766 644 766 l -17 766 l -17 819 l 127 963 l 610 963 q 815 879 731 963 q 899 678 899 795 q 814 477 899 561 l 812 475 z "},"4":{"ha":983,"x_min":-17,"x_max":899,"o":"m 763 190 l 763 -14 l 559 -14 l 559 190 l -17 190 l -17 963 l 186 963 l 186 387 l 559 387 l 559 963 l 763 963 l 763 387 l 899 387 l 899 190 l 763 190 z "},"5":{"ha":983,"x_min":-17,"x_max":899,"o":"m -17 393 l -17 963 l 899 963 l 899 911 l 754 766 l 186 766 l 186 556 l 610 556 q 815 472 731 556 q 899 271 899 389 q 815 70 899 154 q 610 -14 731 -14 l 127 -14 l -17 131 l -17 183 l 610 183 q 669 213 644 183 q 695 288 695 243 q 669 363 695 333 q 610 393 644 393 l -17 393 z "},"6":{"ha":983,"x_min":-17,"x_max":899,"o":"m 650 228 q 673 251 650 228 q 695 339 695 273 q 650 450 695 405 q 544 495 605 495 l 339 495 q 232 450 277 495 q 186 339 186 405 q 232 228 186 273 q 339 183 277 183 l 543 183 q 650 228 605 183 m 192 663 q 339 692 241 692 l 543 692 q 795 588 691 692 q 899 339 899 484 q 795 90 899 194 q 543 -14 691 -14 l 339 -14 q 87 90 191 -14 q -17 339 -17 194 l -17 610 q 87 859 -17 755 q 339 963 191 963 l 763 963 l 763 911 l 621 766 l 339 766 q 231 721 277 766 q 192 663 195 684 z "},"7":{"ha":1051,"x_min":-17,"x_max":977,"o":"m 384 -14 l 142 -14 l 617 766 l -17 766 l -17 819 l 127 963 l 977 963 l 384 -14 z "},"8":{"ha":983,"x_min":-17,"x_max":899,"o":"m 610 556 q 669 586 644 556 q 695 661 695 616 q 669 736 695 707 q 610 766 644 766 l 271 766 q 212 736 238 766 q 186 661 186 707 q 212 586 186 616 q 271 556 238 556 l 610 556 m 271 393 q 212 363 238 393 q 186 288 186 333 q 212 213 186 243 q 271 183 238 183 l 610 183 q 669 213 644 183 q 695 288 695 243 q 669 363 695 333 q 610 393 644 393 l 271 393 m 812 475 l 814 473 q 899 271 899 389 q 815 70 899 154 q 610 -14 731 -14 l 271 -14 q 67 70 151 -14 q -17 271 -17 154 q 67 473 -17 389 l 69 475 l 67 477 q -17 678 -17 561 q 67 879 -17 795 q 271 963 151 963 l 610 963 q 815 879 731 963 q 899 678 899 795 q 814 477 899 561 l 812 475 z "},"9":{"ha":983,"x_min":-17,"x_max":899,"o":"m 232 721 q 209 699 232 721 q 186 610 186 676 q 232 499 186 545 q 338 454 277 454 l 543 454 q 650 499 605 454 q 695 610 695 545 q 650 721 695 676 q 543 766 605 766 l 339 766 q 232 721 277 766 m 690 286 q 543 258 641 258 l 338 258 q 87 361 191 258 q -17 610 -17 465 q 87 859 -17 755 q 338 963 191 963 l 543 963 q 795 859 691 963 q 899 610 899 755 l 899 339 q 795 90 899 194 q 543 -14 691 -14 l 263 -14 l 119 131 l 119 183 l 543 183 q 650 229 605 183 q 690 286 687 265 z "},"\u0000":{"ha":0,"x_min":0,"x_max":0,"o":""},"\u001d":{"ha":0,"x_min":0,"x_max":0,"o":""}," ":{"ha":543,"x_min":0,"x_max":0,"o":""}," ":{"ha":543,"x_min":0,"x_max":0,"o":""},"!":{"ha":305,"x_min":-17,"x_max":220,"o":"m 102 -14 q 17 21 52 -14 q -17 102 -17 55 q 17 183 -17 149 q 102 217 52 217 q 186 183 152 217 q 220 102 220 149 q 186 21 220 55 q 102 -14 152 -14 m 0 963 l 203 963 l 203 258 l 0 258 l 0 963 z "},"\"":{"ha":576,"x_min":-17,"x_max":492,"o":"m -17 848 q 17 929 -17 895 q 102 963 52 963 q 186 929 152 963 q 220 848 220 895 l 220 741 l 42 563 l -17 563 l -17 848 m 254 848 q 289 929 254 895 q 373 963 323 963 q 457 929 423 963 q 492 848 492 895 l 492 741 l 313 563 l 254 563 l 254 848 z "},"#":{"ha":916,"x_min":-17,"x_max":831,"o":"m 322 760 l 458 760 l 458 895 l 661 895 l 661 760 l 831 760 l 831 563 l 661 563 l 661 454 l 831 454 l 831 258 l 661 258 l 661 122 l 458 122 l 458 258 l 322 258 l 322 122 l 119 122 l 119 258 l -17 258 l -17 454 l 119 454 l 119 563 l -17 563 l -17 760 l 119 760 l 119 895 l 322 895 l 322 760 m 458 563 l 322 563 l 322 454 l 458 454 l 458 563 z "},"$":{"ha":1051,"x_min":-17,"x_max":966,"o":"m 576 556 l 712 556 q 892 482 819 556 q 966 305 966 408 q 892 128 966 202 q 712 54 819 54 l 576 54 l 576 -14 l 373 -14 l 373 54 l 127 54 l -17 199 l -17 251 l 373 251 l 373 393 l 237 393 q 57 467 131 393 q -17 644 -17 541 q 57 821 -17 747 q 237 895 131 895 l 373 895 l 373 963 l 576 963 l 576 895 l 966 895 l 966 843 l 822 699 l 576 699 l 576 556 m 373 699 l 237 699 q 202 679 218 699 q 186 627 186 659 q 202 576 186 596 q 237 556 218 556 l 373 556 l 373 699 m 576 251 l 712 251 q 747 271 731 251 q 763 322 763 291 q 747 373 763 353 q 712 393 731 393 l 576 393 l 576 251 z "},"%":{"ha":1051,"x_min":-66,"x_max":1015,"o":"m 678 183 q 738 209 712 183 q 763 271 763 234 q 738 334 763 309 q 678 359 712 359 q 619 334 644 359 q 593 271 593 309 q 619 209 593 234 q 678 183 644 183 m 331 615 q 343 628 331 615 q 356 678 356 641 q 331 741 356 715 q 271 766 305 766 q 212 741 237 766 q 186 678 186 715 q 212 615 186 641 q 271 590 237 590 q 331 615 305 590 m 281 391 l 287 392 q 271 393 287 393 q 67 477 151 393 q -17 678 -17 561 q 67 879 -17 795 q 271 963 151 963 q 476 879 392 963 q 559 716 559 795 l 771 963 l 1015 963 l 669 559 l 663 557 q 678 556 663 556 q 883 472 799 556 q 966 271 966 389 q 883 70 966 154 q 678 -14 799 -14 q 474 70 557 -14 q 390 233 390 154 l 178 -14 l -66 -14 l 281 391 z "},"&":{"ha":983,"x_min":-17,"x_max":899,"o":"m 559 183 l 559 393 l 271 393 q 212 363 238 393 q 186 288 186 333 q 212 213 186 243 q 271 183 238 183 l 559 183 m 69 475 l 67 477 q -17 678 -17 561 q 67 879 -17 795 q 271 963 151 963 l 627 963 l 627 911 l 483 766 l 271 766 q 212 736 238 766 q 186 661 186 707 q 212 586 186 616 q 271 556 238 556 l 559 556 l 559 692 l 763 692 l 763 556 l 899 556 l 899 504 l 788 393 l 763 393 l 763 183 l 899 183 l 899 131 l 754 -14 l 271 -14 q 67 70 151 -14 q -17 271 -17 154 q 67 473 -17 389 l 69 475 z "},"'":{"ha":305,"x_min":-17,"x_max":220,"o":"m -17 848 q 17 929 -17 895 q 102 963 52 963 q 186 929 152 963 q 220 848 220 895 l 220 741 l 42 563 l -17 563 l -17 848 z "},"(":{"ha":644,"x_min":-17,"x_max":559,"o":"m 186 271 q 232 160 186 205 q 339 115 277 115 l 559 115 l 559 63 l 415 -81 l 339 -81 q 87 22 191 -81 q -17 271 -17 126 l -17 678 q 87 927 -17 823 q 339 1031 191 1031 l 559 1031 l 559 979 l 415 834 l 339 834 q 232 789 277 834 q 186 678 186 744 l 186 271 z "},")":{"ha":644,"x_min":-17,"x_max":559,"o":"m 356 678 q 311 789 356 744 q 203 834 266 834 l -17 834 l -17 886 l 127 1031 l 203 1031 q 456 927 352 1031 q 559 678 559 823 l 559 271 q 456 22 559 126 q 203 -81 352 -81 l -17 -81 l -17 -29 l 127 115 l 203 115 q 311 160 266 115 q 356 271 356 205 l 356 678 z "},"*":{"ha":678,"x_min":-16,"x_max":593,"o":"m 186 883 l 186 1031 l 390 1031 l 390 883 l 532 928 l 593 741 l 450 695 l 538 574 l 375 456 l 288 574 l 201 456 l 39 574 l 127 695 l -16 741 l 45 928 l 186 883 z "},"+":{"ha":916,"x_min":-17,"x_max":831,"o":"m 509 590 l 831 590 l 831 538 l 686 393 l 509 393 l 509 139 l 305 139 l 305 393 l -17 393 l -17 590 l 305 590 l 305 844 l 509 844 l 509 590 z "},",":{"ha":305,"x_min":-17,"x_max":220,"o":"m -17 102 q 17 183 -17 149 q 102 217 52 217 q 186 183 152 217 q 220 102 220 149 l 220 -5 l 42 -183 l -17 -183 l -17 102 z "},"-":{"ha":916,"x_min":-17,"x_max":831,"o":"m 831 590 l 831 538 l 686 393 l -17 393 l -17 590 l 831 590 z "},"­":{"ha":916,"x_min":-17,"x_max":831,"o":"m 831 590 l 831 538 l 686 393 l -17 393 l -17 590 l 831 590 z "},".":{"ha":305,"x_min":-17,"x_max":220,"o":"m 102 -14 q 17 21 52 -14 q -17 102 -17 55 q 17 183 -17 149 q 102 217 52 217 q 186 183 152 217 q 220 102 220 149 q 186 21 220 55 q 102 -14 152 -14 z "},"/":{"ha":1051,"x_min":-66,"x_max":1015,"o":"m 771 963 l 1015 963 l 178 -14 l -66 -14 l 771 963 z "},":":{"ha":305,"x_min":-17,"x_max":220,"o":"m 102 -14 q 17 21 52 -14 q -17 102 -17 55 q 17 183 -17 149 q 102 217 52 217 q 186 183 152 217 q 220 102 220 149 q 186 21 220 55 q 102 -14 152 -14 m 102 359 q 17 394 52 359 q -17 475 -17 428 q 17 556 -17 522 q 102 590 52 590 q 186 556 152 590 q 220 475 220 522 q 186 394 220 428 q 102 359 152 359 z "},";":{"ha":305,"x_min":-17,"x_max":220,"o":"m 102 359 q 17 394 52 359 q -17 475 -17 428 q 17 556 -17 522 q 102 590 52 590 q 186 556 152 590 q 220 475 220 522 q 186 394 220 428 q 102 359 152 359 m -17 102 q 17 183 -17 149 q 102 217 52 217 q 186 183 152 217 q 220 102 220 149 l 220 -5 l 42 -183 l -17 -183 l -17 102 z "},";":{"ha":305,"x_min":-17,"x_max":220,"o":"m 102 359 q 17 394 52 359 q -17 475 -17 428 q 17 556 -17 522 q 102 590 52 590 q 186 556 152 590 q 220 475 220 522 q 186 394 220 428 q 102 359 152 359 m -17 102 q 17 183 -17 149 q 102 217 52 217 q 186 183 152 217 q 220 102 220 149 l 220 -5 l 42 -183 l -17 -183 l -17 102 z "},"<":{"ha":576,"x_min":-22,"x_max":544,"o":"m 225 475 l 544 156 l 297 156 l -22 475 l 297 793 l 544 793 l 225 475 z "},"=":{"ha":916,"x_min":-17,"x_max":831,"o":"m 831 760 l 831 707 l 686 563 l -17 563 l -17 760 l 831 760 m 831 454 l 831 402 l 686 258 l -17 258 l -17 454 l 831 454 z "},">":{"ha":576,"x_min":-35,"x_max":530,"o":"m -35 793 l 212 793 l 530 475 l 212 156 l -35 156 l 283 475 l -35 793 z "},"?":{"ha":1051,"x_min":-17,"x_max":966,"o":"m 475 393 q 416 363 441 393 q 390 288 390 333 l 390 258 l 186 258 q 270 472 186 389 q 475 556 354 556 l 678 556 q 737 586 711 556 q 763 661 763 616 q 737 736 763 707 q 678 766 711 766 l 127 766 l -17 911 l -17 963 l 678 963 q 883 879 799 963 q 966 678 966 795 q 883 477 966 561 q 678 393 799 393 l 475 393 m 305 -14 q 221 21 255 -14 q 186 102 186 55 q 221 183 186 149 q 305 217 255 217 q 390 183 355 217 q 424 102 424 149 q 390 21 424 55 q 305 -14 355 -14 z "},"@":{"ha":983,"x_min":-17,"x_max":899,"o":"m 475 766 q 272 681 357 766 q 186 475 186 596 q 272 268 186 353 q 475 183 357 183 l 899 183 l 899 131 l 754 -14 l 475 -14 q 126 130 270 -14 q -17 475 -17 273 q 126 820 -17 676 q 475 963 270 963 l 543 963 q 795 859 691 963 q 899 610 899 755 l 899 258 l 475 258 q 318 322 382 258 q 254 475 254 386 q 318 628 254 564 q 475 692 382 692 l 661 692 l 661 640 l 551 529 l 475 529 q 464 519 471 529 q 458 492 458 509 q 464 464 458 474 q 475 454 471 454 l 695 454 l 695 610 q 650 721 695 676 q 543 766 605 766 l 475 766 z "},"A":{"ha":983,"x_min":-57,"x_max":939,"o":"m 576 387 l 441 732 l 148 -14 l -57 -14 l 327 963 l 555 963 l 939 -14 l 734 -14 l 654 190 l 254 190 l 254 242 l 399 387 l 576 387 z "},"B":{"ha":983,"x_min":-17,"x_max":899,"o":"m 220 393 l 220 446 l 331 556 l 610 556 q 669 586 644 556 q 695 661 695 616 q 669 736 695 707 q 610 766 644 766 l 186 766 l 186 183 l 610 183 q 669 213 644 183 q 695 288 695 243 q 669 363 695 333 q 610 393 644 393 l 220 393 m 812 475 l 814 473 q 899 271 899 389 q 815 70 899 154 q 610 -14 731 -14 l -17 -14 l -17 963 l 610 963 q 815 879 731 963 q 899 678 899 795 q 814 477 899 561 l 812 475 z "},"C":{"ha":983,"x_min":-17,"x_max":899,"o":"m 899 183 l 899 131 l 754 -14 l 475 -14 q 126 130 270 -14 q -17 475 -17 273 q 126 820 -17 676 q 475 963 270 963 l 899 963 l 899 911 l 754 766 l 475 766 q 272 681 357 766 q 186 475 186 596 q 272 268 186 353 q 475 183 357 183 l 899 183 z "},"D":{"ha":983,"x_min":-17,"x_max":899,"o":"m -17 963 l 407 963 q 755 820 612 963 q 899 475 899 676 q 755 130 899 273 q 407 -14 612 -14 l -17 -14 l -17 963 m 186 183 l 407 183 q 610 268 525 183 q 695 475 695 353 q 610 681 695 596 q 407 766 525 766 l 186 766 l 186 183 z "},"E":{"ha":916,"x_min":-17,"x_max":831,"o":"m 831 556 l 831 504 l 720 393 l 220 393 l 220 556 l 831 556 m -17 -14 l -17 963 l 831 963 l 831 911 l 686 766 l 186 766 l 186 183 l 831 183 l 831 131 l 686 -14 l -17 -14 z "},"F":{"ha":916,"x_min":-17,"x_max":831,"o":"m 831 556 l 831 504 l 720 393 l 220 393 l 220 556 l 831 556 m 127 -14 l -17 131 l -17 963 l 831 963 l 831 911 l 686 766 l 186 766 l 186 -14 l 127 -14 z "},"G":{"ha":983,"x_min":-17,"x_max":899,"o":"m 475 -14 q 126 130 270 -14 q -17 475 -17 273 q 126 820 -17 676 q 475 963 270 963 l 899 963 l 899 911 l 754 766 l 475 766 q 272 681 357 766 q 186 475 186 596 q 272 268 186 353 q 475 183 357 183 l 695 183 l 695 393 l 322 393 l 322 446 l 433 556 l 899 556 l 899 -14 l 475 -14 z "},"H":{"ha":983,"x_min":-17,"x_max":899,"o":"m 186 393 l 186 -14 l -17 -14 l -17 963 l 186 963 l 186 446 l 297 556 l 695 556 l 695 963 l 899 963 l 899 -14 l 695 -14 l 695 393 l 186 393 z "},"I":{"ha":271,"x_min":-17,"x_max":186,"o":"m -17 963 l 186 963 l 186 -14 l 127 -14 l -17 131 l -17 963 z "},"J":{"ha":712,"x_min":-17,"x_max":627,"o":"m 424 963 l 627 963 l 627 475 q 484 130 627 273 q 127 -14 340 -14 l -17 131 l -17 183 l 136 183 q 339 268 254 183 q 424 475 424 353 l 424 963 z "},"K":{"ha":983,"x_min":-17,"x_max":951,"o":"m 186 963 l 186 -14 l 127 -14 l -17 131 l -17 963 l 186 963 m 463 475 l 951 -14 l 704 -14 l 216 475 l 704 963 l 951 963 l 463 475 z "},"L":{"ha":916,"x_min":-17,"x_max":831,"o":"m -17 -14 l -17 963 l 186 963 l 186 183 l 831 183 l 831 131 l 686 -14 l -17 -14 z "},"M":{"ha":1187,"x_min":-17,"x_max":1102,"o":"m 186 602 l 186 -14 l 127 -14 l -17 131 l -17 963 l 250 963 l 543 218 l 836 963 l 1102 963 l 1102 -14 l 899 -14 l 899 602 l 656 -14 l 429 -14 l 186 602 z "},"N":{"ha":1051,"x_min":-17,"x_max":966,"o":"m 186 667 l 186 -14 l 127 -14 l -17 131 l -17 963 l 213 963 l 763 251 l 763 963 l 966 963 l 966 -14 l 737 -14 l 186 667 z "},"O":{"ha":1187,"x_min":-17,"x_max":1102,"o":"m 475 -14 q 126 130 270 -14 q -17 475 -17 273 q 126 820 -17 676 q 475 963 270 963 l 610 963 q 959 820 815 963 q 1102 475 1102 676 q 959 130 1102 273 q 610 -14 815 -14 l 475 -14 m 610 183 q 813 268 728 183 q 899 475 899 353 q 813 681 899 596 q 610 766 728 766 l 475 766 q 272 681 357 766 q 186 475 186 596 q 272 268 186 353 q 475 183 357 183 l 610 183 z "},"P":{"ha":983,"x_min":-17,"x_max":899,"o":"m 543 258 l 220 258 l 220 454 l 543 454 q 650 499 605 454 q 695 610 695 545 q 650 721 695 676 q 543 766 605 766 l 186 766 l 186 -14 l 127 -14 l -17 131 l -17 963 l 543 963 q 795 859 691 963 q 899 610 899 755 q 795 361 899 465 q 543 258 691 258 z "},"Q":{"ha":1187,"x_min":-17,"x_max":1156,"o":"m 832 288 q 899 475 899 358 q 813 681 899 596 q 610 766 728 766 l 475 766 q 272 681 357 766 q 186 475 186 596 q 272 268 186 353 q 475 183 357 183 l 610 183 q 687 192 663 183 l 404 454 l 652 454 l 832 288 m 846 44 q 610 -14 747 -14 l 475 -14 q 126 130 270 -14 q -17 475 -17 273 q 126 820 -17 676 q 475 963 270 963 l 610 963 q 959 820 815 963 q 1102 475 1102 676 q 979 151 1102 281 l 1156 -14 l 908 -14 l 846 44 z "},"R":{"ha":983,"x_min":-17,"x_max":952,"o":"m 543 454 q 650 499 605 454 q 695 610 695 545 q 650 721 695 676 q 543 766 605 766 l 186 766 l 186 -14 l 127 -14 l -17 131 l -17 963 l 543 963 q 795 859 691 963 q 899 610 899 755 q 795 361 899 465 q 646 271 720 286 l 952 -14 l 705 -14 l 412 258 l 220 258 l 220 454 l 543 454 z "},"S":{"ha":1051,"x_min":-17,"x_max":966,"o":"m 271 393 q 67 477 151 393 q -17 678 -17 561 q 67 879 -17 795 q 271 963 151 963 l 966 963 l 966 911 l 822 766 l 271 766 q 212 736 238 766 q 186 661 186 707 q 212 586 186 616 q 271 556 238 556 l 678 556 q 883 472 799 556 q 966 271 966 389 q 883 70 966 154 q 678 -14 799 -14 l 127 -14 l -17 131 l -17 183 l 678 183 q 737 213 711 183 q 763 288 763 243 q 737 363 763 333 q 678 393 711 393 l 271 393 z "},"T":{"ha":949,"x_min":-17,"x_max":865,"o":"m 467 -14 l 322 131 l 322 766 l -17 766 l -17 963 l 865 963 l 865 766 l 526 766 l 526 -14 l 467 -14 z "},"U":{"ha":1051,"x_min":-17,"x_max":966,"o":"m 763 963 l 966 963 l 966 475 q 823 130 966 273 q 475 -14 680 -14 q 126 130 270 -14 q -17 475 -17 273 l -17 963 l 186 963 l 186 475 q 272 268 186 353 q 475 183 357 183 q 678 268 593 183 q 763 475 763 353 l 763 963 z "},"V":{"ha":983,"x_min":-57,"x_max":939,"o":"m 327 -14 l -57 963 l 148 963 l 441 218 l 734 963 l 939 963 l 555 -14 l 327 -14 z "},"W":{"ha":1356,"x_min":-57,"x_max":1312,"o":"m 627 170 l 555 -14 l 327 -14 l -57 963 l 148 963 l 441 218 l 525 432 l 316 963 l 521 963 l 814 218 l 1107 963 l 1312 963 l 928 -14 l 700 -14 l 627 170 z "},"X":{"ha":1051,"x_min":-66,"x_max":1015,"o":"m 353 475 l -66 963 l 178 963 l 475 617 l 771 963 l 1015 963 l 597 475 l 1015 -14 l 771 -14 l 475 332 l 178 -14 l -66 -14 l 353 475 z "},"Y":{"ha":1051,"x_min":-66,"x_max":1015,"o":"m 373 451 l 359 467 l -66 963 l 178 963 l 475 617 l 771 963 l 1015 963 l 591 467 l 576 451 l 576 -14 l 517 -14 l 373 131 l 373 451 z "},"Z":{"ha":983,"x_min":-64,"x_max":946,"o":"m 549 766 l -17 766 l -17 819 l 127 963 l 946 963 l 333 183 l 899 183 l 899 131 l 754 -14 l -64 -14 l 549 766 z "},"[":{"ha":644,"x_min":-17,"x_max":559,"o":"m 186 115 l 559 115 l 559 63 l 415 -81 l -17 -81 l -17 1031 l 559 1031 l 559 979 l 415 834 l 186 834 l 186 115 z "},"\\":{"ha":1051,"x_min":-66,"x_max":1015,"o":"m 1015 -14 l 771 -14 l -66 963 l 178 963 l 1015 -14 z "},"]":{"ha":644,"x_min":-17,"x_max":559,"o":"m 356 834 l -17 834 l -17 886 l 127 1031 l 559 1031 l 559 -81 l -17 -81 l -17 -29 l 127 115 l 356 115 l 356 834 z "},"^":{"ha":644,"x_min":-17,"x_max":559,"o":"m -17 993 l -17 1194 l 271 1338 l 559 1194 l 559 993 l 271 1137 l -17 993 z "},"_":{"ha":916,"x_min":-17,"x_max":831,"o":"m -17 -285 l -17 -88 l 831 -88 l 831 -285 l -17 -285 z "},"`":{"ha":644,"x_min":-17,"x_max":559,"o":"m -17 1248 l -17 1302 l 348 1302 l 559 1055 l 559 1004 l 401 1004 l -17 1248 z "},"a":{"ha":780,"x_min":-17,"x_max":695,"o":"m 492 183 l 492 339 q 447 450 492 405 q 339 495 401 495 l -17 495 l -17 547 l 127 692 l 339 692 q 591 588 488 692 q 695 339 695 484 l 695 -14 l 203 -14 q 47 51 111 -14 q -17 203 -17 115 q 47 356 -17 292 q 203 420 111 420 l 458 420 l 458 368 l 347 258 l 203 258 q 193 248 199 258 q 186 220 186 238 q 193 193 186 203 q 203 183 199 183 l 492 183 z "},"b":{"ha":848,"x_min":-17,"x_max":763,"o":"m -17 -14 l -17 963 l 186 963 l 186 183 l 407 183 q 514 228 469 183 q 559 339 559 273 q 514 450 559 405 q 407 495 469 495 l 220 495 l 220 547 l 365 692 l 407 692 q 659 588 555 692 q 763 339 763 484 q 659 90 763 194 q 407 -14 555 -14 l -17 -14 z "},"c":{"ha":780,"x_min":-17,"x_max":695,"o":"m 695 692 l 695 640 l 551 495 l 339 495 q 232 450 277 495 q 186 339 186 405 q 232 228 186 273 q 339 183 277 183 l 695 183 l 695 131 l 551 -14 l 339 -14 q 87 90 191 -14 q -17 339 -17 194 q 87 588 -17 484 q 339 692 191 692 l 695 692 z "},"d":{"ha":848,"x_min":-17,"x_max":763,"o":"m 339 -14 q 87 90 191 -14 q -17 339 -17 194 q 87 588 -17 484 q 339 692 191 692 l 526 692 l 526 640 l 381 495 l 339 495 q 232 450 277 495 q 186 339 186 405 q 232 228 186 273 q 339 183 277 183 l 559 183 l 559 963 l 763 963 l 763 -14 l 339 -14 z "},"e":{"ha":780,"x_min":-17,"x_max":695,"o":"m 339 495 q 232 450 277 495 q 186 339 186 405 q 232 228 186 273 q 339 183 277 183 l 695 183 l 695 131 l 551 -14 l 339 -14 q 87 90 191 -14 q -17 339 -17 194 q 87 588 -17 484 q 339 692 191 692 l 475 692 q 631 628 567 692 q 695 475 695 564 q 631 322 695 386 q 475 258 567 258 l 220 258 l 220 310 l 331 420 l 475 420 q 485 430 479 420 q 492 458 492 440 q 485 485 492 475 q 475 495 479 495 l 339 495 z "},"f":{"ha":576,"x_min":-17,"x_max":492,"o":"m 492 692 l 492 640 l 347 495 l 288 495 l 288 -14 l 85 -14 l 85 495 l -17 495 l -17 692 l 85 692 l 85 746 q 149 899 85 835 q 305 963 213 963 l 492 963 l 492 911 l 347 766 l 305 766 q 295 756 301 766 q 288 729 288 747 l 288 692 l 492 692 z "},"g":{"ha":848,"x_min":-17,"x_max":763,"o":"m 559 495 l 339 495 q 232 450 277 495 q 186 339 186 405 q 232 228 186 273 q 339 183 277 183 l 526 183 l 526 131 l 381 -14 l 339 -14 q 87 90 191 -14 q -17 339 -17 194 q 87 588 -17 484 q 339 692 191 692 l 763 692 l 763 -68 q 699 -221 763 -157 q 543 -285 635 -285 l 263 -285 l 119 -140 l 119 -88 l 543 -88 q 553 -78 547 -88 q 559 -51 559 -68 l 559 495 z "},"h":{"ha":848,"x_min":-17,"x_max":763,"o":"m 186 692 l 407 692 q 659 588 555 692 q 763 339 763 484 l 763 -14 l 559 -14 l 559 339 q 514 450 559 405 q 407 495 469 495 l 186 495 l 186 -14 l -17 -14 l -17 963 l 186 963 l 186 692 z "},"i":{"ha":271,"x_min":-17,"x_max":186,"o":"m -17 692 l 186 692 l 186 -14 l 127 -14 l -17 131 l -17 692 m 85 963 q 157 934 128 963 q 186 865 186 905 q 157 795 186 825 q 85 766 128 766 q 12 795 41 766 q -17 865 -17 825 q 12 934 -17 905 q 85 963 41 963 z "},"j":{"ha":271,"x_min":-220,"x_max":186,"o":"m 85 963 q 157 934 128 963 q 186 865 186 905 q 157 795 186 825 q 85 766 128 766 q 12 795 41 766 q -17 865 -17 825 q 12 934 -17 905 q 85 963 41 963 m -17 692 l 186 692 l 186 -68 q 122 -221 186 -157 q -34 -285 58 -285 l -76 -285 l -220 -140 l -220 -88 l -34 -88 q -23 -78 -30 -88 q -17 -51 -17 -68 l -17 692 z "},"k":{"ha":814,"x_min":-17,"x_max":781,"o":"m 186 344 l 534 692 l 781 692 l 429 339 l 781 -14 l 534 -14 l 186 334 l 186 -14 l -17 -14 l -17 963 l 186 963 l 186 344 z "},"l":{"ha":271,"x_min":-17,"x_max":186,"o":"m -17 963 l 186 963 l 186 -14 l 127 -14 l -17 131 l -17 963 z "},"m":{"ha":983,"x_min":-17,"x_max":899,"o":"m 322 495 l 186 495 l 186 -14 l -17 -14 l -17 692 l 543 692 q 795 588 691 692 q 899 339 899 484 l 899 -14 l 695 -14 l 695 339 q 650 450 695 405 q 543 495 605 495 l 526 495 l 526 -14 l 322 -14 l 322 495 z "},"n":{"ha":848,"x_min":-17,"x_max":763,"o":"m 407 692 q 659 588 555 692 q 763 339 763 484 l 763 -14 l 559 -14 l 559 339 q 514 450 559 405 q 407 495 469 495 l 186 495 l 186 -14 l -17 -14 l -17 692 l 407 692 z "},"o":{"ha":848,"x_min":-17,"x_max":763,"o":"m 339 -14 q 87 90 191 -14 q -17 339 -17 194 q 87 588 -17 484 q 339 692 191 692 l 408 692 q 659 588 555 692 q 763 339 763 484 q 659 90 763 194 q 408 -14 555 -14 l 339 -14 m 407 183 q 514 228 469 183 q 559 339 559 273 q 514 450 559 405 q 408 495 469 495 l 339 495 q 232 450 277 495 q 186 339 186 405 q 232 228 186 273 q 339 183 277 183 l 407 183 z "},"p":{"ha":848,"x_min":-17,"x_max":763,"o":"m 407 692 q 659 588 555 692 q 763 339 763 484 q 659 90 763 194 q 407 -14 555 -14 l 220 -14 l 220 39 l 365 183 l 407 183 q 514 228 469 183 q 559 339 559 273 q 514 450 559 405 q 407 495 469 495 l 186 495 l 186 -285 l 127 -285 l -17 -140 l -17 692 l 407 692 z "},"q":{"ha":848,"x_min":-17,"x_max":763,"o":"m 763 692 l 763 -285 l 704 -285 l 559 -140 l 559 495 l 339 495 q 232 450 277 495 q 186 339 186 405 q 232 228 186 273 q 339 183 277 183 l 526 183 l 526 131 l 381 -14 l 339 -14 q 87 90 191 -14 q -17 339 -17 194 q 87 588 -17 484 q 339 692 191 692 l 763 692 z "},"r":{"ha":746,"x_min":-17,"x_max":669,"o":"m 527 437 q 407 495 469 495 l 186 495 l 186 -14 l -17 -14 l -17 692 l 407 692 q 669 579 555 692 l 527 437 z "},"s":{"ha":780,"x_min":-17,"x_max":695,"o":"m 475 -14 l 127 -14 l -17 131 l -17 183 l 475 183 q 485 193 479 183 q 492 220 492 203 q 485 248 492 238 q 475 258 479 258 l 203 258 q 47 322 111 258 q -17 475 -17 386 q 47 628 -17 564 q 203 692 111 692 l 695 692 l 695 640 l 551 495 l 203 495 q 193 485 199 495 q 186 458 186 475 q 193 430 186 440 q 203 420 199 420 l 475 420 q 631 356 567 420 q 695 203 695 292 q 631 51 695 115 q 475 -14 567 -14 z "},"t":{"ha":576,"x_min":-17,"x_max":492,"o":"m 288 495 l 288 220 q 295 193 288 203 q 305 183 301 183 l 492 183 l 492 131 l 347 -14 l 305 -14 q 149 51 213 -14 q 85 203 85 115 l 85 495 l -17 495 l -17 692 l 85 692 l 85 827 l 288 827 l 288 692 l 492 692 l 492 640 l 347 495 l 288 495 z "},"u":{"ha":848,"x_min":-17,"x_max":763,"o":"m 407 183 q 514 228 469 183 q 559 339 559 273 l 559 692 l 763 692 l 763 339 q 659 90 763 194 q 407 -14 555 -14 l 339 -14 q 87 90 191 -14 q -17 339 -17 194 l -17 692 l 186 692 l 186 339 q 232 228 186 273 q 339 183 277 183 l 407 183 z "},"v":{"ha":848,"x_min":-57,"x_max":803,"o":"m 225 -14 l -57 692 l 165 692 l 373 172 l 581 692 l 803 692 l 521 -14 l 225 -14 z "},"w":{"ha":1221,"x_min":-57,"x_max":1176,"o":"m 559 83 l 521 -14 l 225 -14 l -57 692 l 165 692 l 373 172 l 448 360 l 316 692 l 538 692 l 746 172 l 954 692 l 1176 692 l 894 -14 l 598 -14 l 559 83 z "},"x":{"ha":848,"x_min":-67,"x_max":813,"o":"m 250 339 l -67 692 l 178 692 l 373 475 l 568 692 l 813 692 l 496 339 l 813 -14 l 568 -14 l 373 203 l 178 -14 l -67 -14 l 250 339 z "},"y":{"ha":848,"x_min":-57,"x_max":803,"o":"m 187 -285 l 296 -14 l 225 -14 l -57 692 l 165 692 l 372 174 l 581 692 l 803 692 l 409 -285 l 187 -285 z "},"z":{"ha":848,"x_min":-67,"x_max":813,"o":"m 391 495 l -17 495 l -17 547 l 127 692 l 813 692 l 355 183 l 763 183 l 763 131 l 618 -14 l -67 -14 l 391 495 z "},"{":{"ha":746,"x_min":-17,"x_max":627,"o":"m 236 475 l 238 473 q 319 319 309 401 l 322 319 l 322 271 q 367 160 322 205 q 475 115 412 115 l 627 115 l 627 63 l 483 -81 q 222 22 326 -81 q 119 271 119 126 l 119 292 l 119 292 q 92 365 114 338 q 34 393 67 393 l -17 393 l -17 556 l 34 556 q 92 585 67 556 q 119 658 114 611 l 119 658 l 119 678 q 222 927 119 823 q 475 1031 326 1031 l 627 1031 l 627 979 l 483 834 q 367 789 412 834 q 322 678 322 744 l 322 631 l 319 631 q 238 477 309 548 l 236 475 z "},"|":{"ha":271,"x_min":-17,"x_max":186,"o":"m -17 1031 l 186 1031 l 186 -81 l -17 -81 l -17 1031 z "},"}":{"ha":746,"x_min":-17,"x_max":627,"o":"m 374 475 l 372 477 q 292 631 301 548 l 288 631 l 288 678 q 243 789 288 744 q 136 834 198 834 l -17 834 l -17 886 l 127 1031 q 388 927 284 1031 q 492 678 492 823 l 492 658 l 491 658 q 519 585 496 611 q 576 556 543 556 l 627 556 l 627 393 l 576 393 q 519 364 543 393 q 491 292 496 338 l 492 292 l 492 271 q 388 22 492 126 q 136 -81 284 -81 l -17 -81 l -17 -29 l 127 115 q 243 160 198 115 q 288 271 288 205 l 288 319 l 292 319 q 372 473 301 401 l 374 475 z "},"~":{"ha":916,"x_min":-17,"x_max":831,"o":"m 384 1055 q 341 1080 384 1055 q 271 1105 299 1105 q 218 1077 250 1105 q 186 1004 186 1049 l -17 1004 q 72 1213 -17 1124 q 271 1302 161 1302 q 429 1251 345 1302 q 543 1200 514 1200 q 598 1228 569 1200 q 627 1302 627 1256 l 831 1302 q 742 1093 831 1182 q 543 1004 652 1004 q 384 1055 469 1004 z "},"¡":{"ha":305,"x_min":-17,"x_max":220,"o":"m 102 963 q 186 929 152 963 q 220 848 220 895 q 186 767 220 801 q 102 732 152 732 q 17 767 52 732 q -17 848 -17 801 q 17 929 -17 895 q 102 963 52 963 m 0 692 l 203 692 l 203 -14 l 0 -14 l 0 692 z "},"¢":{"ha":780,"x_min":-17,"x_max":695,"o":"m 288 757 l 288 827 l 492 827 l 492 760 l 695 760 l 695 707 l 551 563 l 339 563 q 232 518 277 563 q 186 407 186 473 q 232 296 186 341 q 339 251 277 251 l 695 251 l 695 199 l 551 54 l 492 54 l 492 -16 l 288 -16 l 288 57 q 87 159 178 67 q -17 407 -17 262 q 87 656 -17 552 q 288 757 178 747 z "},"£":{"ha":983,"x_min":-17,"x_max":899,"o":"m 85 183 l 85 393 l -17 393 l -17 556 l 85 556 l 85 746 q 149 899 85 835 q 305 963 213 963 l 729 963 l 729 911 l 585 766 l 305 766 q 295 756 301 766 q 288 729 288 747 l 288 556 l 729 556 l 729 504 l 618 393 l 288 393 l 288 183 l 899 183 l 899 131 l 754 -14 l -17 -14 l -17 183 l 85 183 z "},"¤":{"ha":1051,"x_min":-66,"x_max":1015,"o":"m 475 387 q 534 412 509 387 q 559 475 559 437 q 534 537 559 512 q 475 563 509 563 q 415 537 441 563 q 390 475 390 512 q 415 412 390 437 q 475 387 441 387 m 369 209 l 178 -14 l -66 -14 l 227 328 q 186 475 186 389 q 227 622 186 561 l -66 963 l 178 963 l 369 741 q 475 760 410 760 q 581 741 539 760 l 771 963 l 1015 963 l 723 622 q 763 475 763 561 q 723 328 763 389 l 1015 -14 l 771 -14 l 581 209 q 475 190 539 190 q 369 209 410 190 z "},"¥":{"ha":1051,"x_min":-66,"x_max":1015,"o":"m 283 556 l -66 963 l 178 963 l 475 617 l 771 963 l 1015 963 l 667 556 l 899 556 l 899 359 l 576 359 l 576 319 l 899 319 l 899 122 l 576 122 l 576 -14 l 373 -14 l 373 122 l 51 122 l 51 319 l 373 319 l 373 359 l 51 359 l 51 556 l 283 556 z "},"¦":{"ha":271,"x_min":-17,"x_max":186,"o":"m -17 529 l -17 1031 l 186 1031 l 186 529 l -17 529 m 186 420 l 186 -81 l -17 -81 l -17 420 l 186 420 z "},"§":{"ha":983,"x_min":-17,"x_max":899,"o":"m 424 387 q 483 412 458 387 q 509 475 509 437 q 483 537 509 512 q 424 563 458 563 q 365 537 390 563 q 339 475 339 512 q 365 412 339 437 q 424 387 390 387 m 205 662 l 205 663 l 206 662 l 205 662 m 659 308 q 628 273 651 296 q 424 190 545 190 q 219 274 303 190 q 136 475 136 357 q 136 493 136 488 q 67 545 102 510 q -17 746 -17 629 q 67 947 -17 863 q 271 1031 151 1031 l 899 1031 l 899 979 l 754 834 l 271 834 q 212 804 238 834 q 186 729 186 774 q 206 663 186 691 q 220 676 209 665 q 424 760 303 760 q 628 676 545 760 q 712 475 712 592 l 712 471 q 814 405 765 454 q 899 203 899 321 q 815 2 899 86 q 610 -81 731 -81 l 127 -81 l -17 63 l -17 115 l 610 115 q 669 145 644 115 q 695 220 695 175 q 668 297 695 265 q 659 308 660 306 z "},"¨":{"ha":712,"x_min":-17,"x_max":627,"o":"m 102 1004 q 17 1038 52 1004 q -17 1119 -17 1072 q 17 1200 -17 1166 q 102 1234 52 1234 q 186 1200 152 1234 q 220 1119 220 1166 q 186 1038 220 1072 q 102 1004 152 1004 m 509 1004 q 424 1038 458 1004 q 390 1119 390 1072 q 424 1200 390 1166 q 509 1234 458 1234 q 593 1200 559 1234 q 627 1119 627 1166 q 593 1038 627 1072 q 509 1004 559 1004 z "},"©":{"ha":949,"x_min":51,"x_max":932,"o":"m 708 963 q 492 1038 616 1038 q 252 943 351 1038 q 153 712 153 848 q 252 481 153 576 q 492 387 351 387 q 731 481 631 387 q 831 712 831 576 q 731 943 831 848 q 729 945 730 943 l 618 834 l 441 834 q 357 799 393 834 q 322 712 322 764 q 357 625 322 661 q 441 590 393 590 l 747 590 l 618 461 l 441 461 q 260 535 334 461 q 186 712 186 609 q 260 889 186 815 q 441 963 334 963 l 708 963 m 804 1009 q 868 947 804 1009 q 932 712 932 886 q 804 415 932 538 q 492 292 675 292 q 179 415 308 292 q 51 712 51 538 q 179 1009 51 886 q 492 1133 308 1133 q 804 1009 675 1133 z "},"ª":{"ha":1119,"x_min":0,"x_max":1017,"o":"m 136 0 q 0 136 0 0 l 0 882 q 136 1017 0 1017 l 882 1017 q 1017 882 1017 1017 l 1017 136 q 882 0 1017 0 l 136 0 m 882 17 q 1000 136 1000 17 l 1000 882 q 882 1000 1000 1000 l 136 1000 q 17 882 18 1000 l 17 136 q 136 17 18 17 l 882 17 z "},"«":{"ha":949,"x_min":-22,"x_max":917,"o":"m 225 475 l 544 156 l 297 156 l -22 475 l 297 793 l 544 793 l 225 475 m 598 475 l 917 156 l 670 156 l 351 475 l 670 793 l 917 793 l 598 475 z "},"¬":{"ha":1119,"x_min":0,"x_max":1017,"o":"m 136 0 q 0 136 0 0 l 0 882 q 136 1017 0 1017 l 882 1017 q 1017 882 1017 1017 l 1017 136 q 882 0 1017 0 l 136 0 m 882 17 q 1000 136 1000 17 l 1000 882 q 882 1000 1000 1000 l 136 1000 q 17 882 18 1000 l 17 136 q 136 17 18 17 l 882 17 z "},"®":{"ha":949,"x_min":51,"x_max":932,"o":"m 356 649 l 395 688 l 433 726 l 610 726 q 621 735 614 726 q 627 763 627 745 l 627 797 q 621 824 627 814 q 610 834 614 834 l 356 834 l 356 649 m 275 963 l 610 963 q 719 919 675 963 q 763 814 763 875 l 763 780 q 719 675 763 719 q 610 631 675 631 l 612 631 l 724 518 l 752 502 q 831 712 831 583 q 731 943 831 848 q 492 1038 631 1038 q 275 963 368 1038 m 220 909 q 153 712 153 824 q 220 513 153 578 l 220 909 m 356 631 l 356 412 q 492 387 412 387 q 709 461 622 387 l 602 461 l 433 631 l 356 631 m 932 712 q 804 415 932 538 q 492 292 675 292 q 179 415 308 292 q 51 712 51 538 q 179 1009 51 886 q 492 1133 308 1133 q 804 1009 675 1133 q 932 712 932 886 z "},"¯":{"ha":1119,"x_min":0,"x_max":1017,"o":"m 136 0 q 0 136 0 0 l 0 882 q 136 1017 0 1017 l 882 1017 q 1017 882 1017 1017 l 1017 136 q 882 0 1017 0 l 136 0 m 882 17 q 1000 136 1000 17 l 1000 882 q 882 1000 1000 1000 l 136 1000 q 17 882 18 1000 l 17 136 q 136 17 18 17 l 882 17 z "},"°":{"ha":519,"x_min":92,"x_max":503,"o":"m 298 917 q 210 880 248 917 q 173 789 173 843 q 210 698 173 734 q 298 662 247 662 q 385 698 349 662 q 421 789 421 734 q 385 880 421 843 q 298 917 348 917 m 298 991 q 443 932 384 991 q 503 789 503 872 q 443 647 503 707 q 296 587 382 587 q 150 647 209 587 q 92 789 92 706 q 151 932 92 873 q 298 991 211 991 z "},"±":{"ha":1119,"x_min":0,"x_max":1017,"o":"m 136 0 q 0 136 0 0 l 0 882 q 136 1017 0 1017 l 882 1017 q 1017 882 1017 1017 l 1017 136 q 882 0 1017 0 l 136 0 m 882 17 q 1000 136 1000 17 l 1000 882 q 882 1000 1000 1000 l 136 1000 q 17 882 18 1000 l 17 136 q 136 17 18 17 l 882 17 z "},"²":{"ha":1119,"x_min":0,"x_max":1017,"o":"m 136 0 q 0 136 0 0 l 0 882 q 136 1017 0 1017 l 882 1017 q 1017 882 1017 1017 l 1017 136 q 882 0 1017 0 l 136 0 m 882 17 q 1000 136 1000 17 l 1000 882 q 882 1000 1000 1000 l 136 1000 q 17 882 18 1000 l 17 136 q 136 17 18 17 l 882 17 z "},"³":{"ha":1119,"x_min":0,"x_max":1017,"o":"m 136 0 q 0 136 0 0 l 0 882 q 136 1017 0 1017 l 882 1017 q 1017 882 1017 1017 l 1017 136 q 882 0 1017 0 l 136 0 m 882 17 q 1000 136 1000 17 l 1000 882 q 882 1000 1000 1000 l 136 1000 q 17 882 18 1000 l 17 136 q 136 17 18 17 l 882 17 z "},"´":{"ha":644,"x_min":-17,"x_max":559,"o":"m 141 1004 l -17 1004 l -17 1055 l 195 1302 l 559 1302 l 559 1248 l 141 1004 z "},"µ":{"ha":848,"x_min":-17,"x_max":763,"o":"m 186 692 l 186 339 q 232 228 186 273 q 339 183 277 183 l 407 183 q 514 228 469 183 q 559 339 559 273 l 559 692 l 763 692 l 763 339 q 659 90 763 194 q 407 -14 555 -14 l 339 -14 q 186 18 239 -14 l 186 -285 l 127 -285 l -17 -140 l -17 692 l 186 692 z "},"¶":{"ha":732,"x_min":114,"x_max":715,"o":"m 715 987 l 715 912 l 629 912 l 629 -14 l 539 -14 l 539 912 l 460 912 l 460 -14 l 370 -14 l 370 488 q 187 561 260 493 q 114 736 114 629 q 192 917 114 848 q 397 987 269 987 l 715 987 z "},"·":{"ha":305,"x_min":-17,"x_max":220,"o":"m 102 359 q 17 394 52 359 q -17 475 -17 428 q 17 556 -17 522 q 102 590 52 590 q 186 556 152 590 q 220 475 220 522 q 186 394 220 428 q 102 359 152 359 z "},"∙":{"ha":305,"x_min":-17,"x_max":220,"o":"m 102 359 q 17 394 52 359 q -17 475 -17 428 q 17 556 -17 522 q 102 590 52 590 q 186 556 152 590 q 220 475 220 522 q 186 394 220 428 q 102 359 152 359 z "},"¸":{"ha":576,"x_min":-17,"x_max":492,"o":"m 271 -251 l 127 -251 l -17 -106 l -17 -54 l 271 -54 q 282 -44 275 -54 q 288 -17 288 -35 l 288 183 l 492 183 l 492 -34 q 428 -187 492 -123 q 271 -251 363 -251 z "},"¹":{"ha":1119,"x_min":0,"x_max":1017,"o":"m 136 0 q 0 136 0 0 l 0 882 q 136 1017 0 1017 l 882 1017 q 1017 882 1017 1017 l 1017 136 q 882 0 1017 0 l 136 0 m 882 17 q 1000 136 1000 17 l 1000 882 q 882 1000 1000 1000 l 136 1000 q 17 882 18 1000 l 17 136 q 136 17 18 17 l 882 17 z "},"º":{"ha":1119,"x_min":0,"x_max":1017,"o":"m 136 0 q 0 136 0 0 l 0 882 q 136 1017 0 1017 l 882 1017 q 1017 882 1017 1017 l 1017 136 q 882 0 1017 0 l 136 0 m 882 17 q 1000 136 1000 17 l 1000 882 q 882 1000 1000 1000 l 136 1000 q 17 882 18 1000 l 17 136 q 136 17 18 17 l 882 17 z "},"»":{"ha":949,"x_min":-35,"x_max":903,"o":"m 338 793 l 585 793 l 903 475 l 585 156 l 338 156 l 656 475 l 338 793 m -35 793 l 212 793 l 530 475 l 212 156 l -35 156 l 283 475 l -35 793 z "},"¼":{"ha":1119,"x_min":0,"x_max":1017,"o":"m 136 0 q 0 136 0 0 l 0 882 q 136 1017 0 1017 l 882 1017 q 1017 882 1017 1017 l 1017 136 q 882 0 1017 0 l 136 0 m 882 17 q 1000 136 1000 17 l 1000 882 q 882 1000 1000 1000 l 136 1000 q 17 882 18 1000 l 17 136 q 136 17 18 17 l 882 17 z "},"½":{"ha":1119,"x_min":0,"x_max":1017,"o":"m 136 0 q 0 136 0 0 l 0 882 q 136 1017 0 1017 l 882 1017 q 1017 882 1017 1017 l 1017 136 q 882 0 1017 0 l 136 0 m 882 17 q 1000 136 1000 17 l 1000 882 q 882 1000 1000 1000 l 136 1000 q 17 882 18 1000 l 17 136 q 136 17 18 17 l 882 17 z "},"¾":{"ha":1119,"x_min":0,"x_max":1017,"o":"m 136 0 q 0 136 0 0 l 0 882 q 136 1017 0 1017 l 882 1017 q 1017 882 1017 1017 l 1017 136 q 882 0 1017 0 l 136 0 m 882 17 q 1000 136 1000 17 l 1000 882 q 882 1000 1000 1000 l 136 1000 q 17 882 18 1000 l 17 136 q 136 17 18 17 l 882 17 z "},"¿":{"ha":1051,"x_min":-17,"x_max":966,"o":"m 475 556 q 534 586 508 556 q 559 661 559 616 l 559 692 l 763 692 q 679 477 763 561 q 475 393 595 393 l 271 393 q 212 363 238 393 q 186 288 186 333 q 212 213 186 243 q 271 183 238 183 l 822 183 l 966 39 l 966 -14 l 271 -14 q 67 70 151 -14 q -17 271 -17 154 q 67 472 -17 389 q 271 556 151 556 l 475 556 m 644 963 q 729 929 694 963 q 763 848 763 895 q 729 767 763 801 q 644 732 694 732 q 560 767 594 732 q 526 848 526 801 q 560 929 526 895 q 644 963 594 963 z "},"À":{"ha":983,"x_min":-57,"x_max":939,"o":"m 576 387 l 441 732 l 148 -14 l -57 -14 l 327 963 l 555 963 l 939 -14 l 734 -14 l 654 190 l 254 190 l 254 242 l 399 387 l 576 387 m 153 1248 l 153 1302 l 517 1302 l 729 1055 l 729 1004 l 571 1004 l 153 1248 z "},"Á":{"ha":983,"x_min":-57,"x_max":939,"o":"m 576 387 l 441 732 l 148 -14 l -57 -14 l 327 963 l 555 963 l 939 -14 l 734 -14 l 654 190 l 254 190 l 254 242 l 399 387 l 576 387 m 311 1004 l 153 1004 l 153 1055 l 364 1302 l 729 1302 l 729 1248 l 311 1004 z "},"Â":{"ha":983,"x_min":-57,"x_max":939,"o":"m 576 387 l 441 732 l 148 -14 l -57 -14 l 327 963 l 555 963 l 939 -14 l 734 -14 l 654 190 l 254 190 l 254 242 l 399 387 l 576 387 m 153 993 l 153 1194 l 441 1338 l 729 1194 l 729 993 l 441 1137 l 153 993 z "},"Ã":{"ha":983,"x_min":-57,"x_max":939,"o":"m 576 387 l 441 732 l 148 -14 l -57 -14 l 327 963 l 555 963 l 939 -14 l 734 -14 l 654 190 l 254 190 l 254 242 l 399 387 l 576 387 m 418 1055 q 375 1080 418 1055 q 305 1105 333 1105 q 252 1077 284 1105 q 220 1004 220 1049 l 17 1004 q 106 1213 17 1124 q 305 1302 195 1302 q 463 1251 378 1302 q 577 1200 548 1200 q 632 1228 603 1200 q 661 1302 661 1256 l 865 1302 q 775 1093 865 1182 q 576 1004 686 1004 q 418 1055 503 1004 z "},"Ä":{"ha":983,"x_min":-57,"x_max":939,"o":"m 576 387 l 441 732 l 148 -14 l -57 -14 l 327 963 l 555 963 l 939 -14 l 734 -14 l 654 190 l 254 190 l 254 242 l 399 387 l 576 387 m 237 1004 q 153 1038 187 1004 q 119 1119 119 1072 q 153 1200 119 1166 q 237 1234 187 1234 q 322 1200 288 1234 q 356 1119 356 1166 q 322 1038 356 1072 q 237 1004 288 1004 m 644 1004 q 560 1038 594 1004 q 526 1119 526 1072 q 560 1200 526 1166 q 644 1234 594 1234 q 729 1200 694 1234 q 763 1119 763 1166 q 729 1038 763 1072 q 644 1004 694 1004 z "},"Å":{"ha":983,"x_min":-57,"x_max":939,"o":"m 576 387 l 441 732 l 148 -14 l -57 -14 l 327 963 l 555 963 l 939 -14 l 734 -14 l 654 190 l 254 190 l 254 242 l 399 387 l 576 387 m 441 1004 q 261 1062 336 1004 q 186 1204 186 1121 q 261 1345 186 1286 q 441 1404 336 1404 q 621 1345 546 1404 q 695 1204 695 1286 q 621 1062 695 1121 q 441 1004 546 1004 m 441 1166 q 477 1178 462 1166 q 492 1204 492 1189 q 477 1230 492 1219 q 441 1241 462 1241 q 405 1230 420 1241 q 390 1204 390 1219 q 405 1178 390 1189 q 441 1166 420 1166 z "},"Æ":{"ha":1662,"x_min":-57,"x_max":1577,"o":"m 1577 556 l 1577 504 l 1466 393 l 966 393 l 966 556 l 1577 556 m 734 -14 l 654 190 l 254 190 l 254 242 l 399 387 l 576 387 l 441 732 l 148 -14 l -57 -14 l 327 963 l 555 963 l 729 519 l 729 963 l 1577 963 l 1577 911 l 1432 766 l 932 766 l 932 183 l 1577 183 l 1577 131 l 1432 -14 l 734 -14 z "},"Ç":{"ha":983,"x_min":-17,"x_max":899,"o":"m 899 183 l 899 131 l 754 -14 l 695 -14 l 695 -34 q 631 -187 695 -123 q 475 -251 567 -251 l 331 -251 l 186 -106 l 186 -54 l 475 -54 q 485 -44 479 -54 q 492 -17 492 -35 l 492 -14 l 475 -14 q 126 130 270 -14 q -17 475 -17 273 q 126 820 -17 676 q 475 963 270 963 l 899 963 l 899 911 l 754 766 l 475 766 q 272 681 357 766 q 186 475 186 596 q 272 268 186 353 q 475 183 357 183 l 899 183 z "},"È":{"ha":916,"x_min":-17,"x_max":831,"o":"m 831 556 l 831 504 l 720 393 l 220 393 l 220 556 l 831 556 m -17 -14 l -17 963 l 831 963 l 831 911 l 686 766 l 186 766 l 186 183 l 831 183 l 831 131 l 686 -14 l -17 -14 m 119 1248 l 119 1302 l 484 1302 l 695 1055 l 695 1004 l 537 1004 l 119 1248 z "},"É":{"ha":916,"x_min":-17,"x_max":831,"o":"m 831 556 l 831 504 l 720 393 l 220 393 l 220 556 l 831 556 m -17 -14 l -17 963 l 831 963 l 831 911 l 686 766 l 186 766 l 186 183 l 831 183 l 831 131 l 686 -14 l -17 -14 m 277 1004 l 119 1004 l 119 1055 l 330 1302 l 695 1302 l 695 1248 l 277 1004 z "},"Ê":{"ha":916,"x_min":-17,"x_max":831,"o":"m 831 556 l 831 504 l 720 393 l 220 393 l 220 556 l 831 556 m -17 -14 l -17 963 l 831 963 l 831 911 l 686 766 l 186 766 l 186 183 l 831 183 l 831 131 l 686 -14 l -17 -14 m 119 993 l 119 1194 l 407 1338 l 695 1194 l 695 993 l 407 1137 l 119 993 z "},"Ë":{"ha":916,"x_min":-17,"x_max":831,"o":"m 831 556 l 831 504 l 720 393 l 220 393 l 220 556 l 831 556 m -17 -14 l -17 963 l 831 963 l 831 911 l 686 766 l 186 766 l 186 183 l 831 183 l 831 131 l 686 -14 l -17 -14 m 203 1004 q 119 1038 153 1004 q 85 1119 85 1072 q 119 1200 85 1166 q 203 1234 153 1234 q 288 1200 254 1234 q 322 1119 322 1166 q 288 1038 322 1072 q 203 1004 254 1004 m 610 1004 q 526 1038 560 1004 q 492 1119 492 1072 q 526 1200 492 1166 q 610 1234 560 1234 q 695 1200 661 1234 q 729 1119 729 1166 q 695 1038 729 1072 q 610 1004 661 1004 z "},"Ì":{"ha":271,"x_min":-203,"x_max":373,"o":"m -17 963 l 186 963 l 186 -14 l 127 -14 l -17 131 l -17 963 m -203 1248 l -203 1302 l 161 1302 l 373 1055 l 373 1004 l 215 1004 l -203 1248 z "},"Í":{"ha":271,"x_min":-203,"x_max":373,"o":"m -17 963 l 186 963 l 186 -14 l 127 -14 l -17 131 l -17 963 m -45 1004 l -203 1004 l -203 1055 l 8 1302 l 373 1302 l 373 1248 l -45 1004 z "},"Î":{"ha":271,"x_min":-203,"x_max":373,"o":"m -17 963 l 186 963 l 186 -14 l 127 -14 l -17 131 l -17 963 m -203 993 l -203 1194 l 85 1338 l 373 1194 l 373 993 l 85 1137 l -203 993 z "},"Ï":{"ha":271,"x_min":-237,"x_max":407,"o":"m -17 963 l 186 963 l 186 -14 l 127 -14 l -17 131 l -17 963 m -119 1004 q -203 1038 -169 1004 q -237 1119 -237 1072 q -203 1200 -237 1166 q -119 1234 -169 1234 q -34 1200 -68 1234 q 0 1119 0 1166 q -34 1038 0 1072 q -119 1004 -68 1004 m 288 1004 q 204 1038 238 1004 q 170 1119 170 1072 q 204 1200 170 1166 q 288 1234 238 1234 q 373 1200 338 1234 q 407 1119 407 1166 q 373 1038 407 1072 q 288 1004 338 1004 z "},"Ð":{"ha":983,"x_min":-17,"x_max":899,"o":"m 254 495 l 254 183 l 407 183 q 610 268 525 183 q 695 475 695 353 q 610 681 695 596 q 407 766 525 766 l 254 766 l 254 658 l 526 658 l 526 606 l 415 495 l 254 495 m 51 658 l 51 963 l 407 963 q 755 820 612 963 q 899 475 899 676 q 755 130 899 273 q 407 -14 612 -14 l 51 -14 l 51 495 l -17 495 l -17 658 l 51 658 z "},"Ñ":{"ha":1051,"x_min":-17,"x_max":966,"o":"m 186 667 l 186 -14 l 127 -14 l -17 131 l -17 963 l 213 963 l 763 251 l 763 963 l 966 963 l 966 -14 l 737 -14 l 186 667 m 452 1055 q 409 1080 452 1055 q 339 1105 367 1105 q 286 1077 318 1105 q 254 1004 254 1049 l 51 1004 q 140 1213 51 1124 q 339 1302 229 1302 q 497 1251 412 1302 q 611 1200 582 1200 q 666 1228 637 1200 q 695 1302 695 1256 l 899 1302 q 809 1093 899 1182 q 610 1004 720 1004 q 452 1055 536 1004 z "},"Ò":{"ha":1187,"x_min":-17,"x_max":1102,"o":"m 475 -14 q 126 130 270 -14 q -17 475 -17 273 q 126 820 -17 676 q 475 963 270 963 l 610 963 q 959 820 815 963 q 1102 475 1102 676 q 959 130 1102 273 q 610 -14 815 -14 l 475 -14 m 610 183 q 813 268 728 183 q 899 475 899 353 q 813 681 899 596 q 610 766 728 766 l 475 766 q 272 681 357 766 q 186 475 186 596 q 272 268 186 353 q 475 183 357 183 l 610 183 m 254 1248 l 254 1302 l 619 1302 l 831 1055 l 831 1004 l 673 1004 l 254 1248 z "},"Ó":{"ha":1187,"x_min":-17,"x_max":1102,"o":"m 475 -14 q 126 130 270 -14 q -17 475 -17 273 q 126 820 -17 676 q 475 963 270 963 l 610 963 q 959 820 815 963 q 1102 475 1102 676 q 959 130 1102 273 q 610 -14 815 -14 l 475 -14 m 610 183 q 813 268 728 183 q 899 475 899 353 q 813 681 899 596 q 610 766 728 766 l 475 766 q 272 681 357 766 q 186 475 186 596 q 272 268 186 353 q 475 183 357 183 l 610 183 m 412 1004 l 254 1004 l 254 1055 l 466 1302 l 831 1302 l 831 1248 l 412 1004 z "},"Ô":{"ha":1187,"x_min":-17,"x_max":1102,"o":"m 475 -14 q 126 130 270 -14 q -17 475 -17 273 q 126 820 -17 676 q 475 963 270 963 l 610 963 q 959 820 815 963 q 1102 475 1102 676 q 959 130 1102 273 q 610 -14 815 -14 l 475 -14 m 610 183 q 813 268 728 183 q 899 475 899 353 q 813 681 899 596 q 610 766 728 766 l 475 766 q 272 681 357 766 q 186 475 186 596 q 272 268 186 353 q 475 183 357 183 l 610 183 m 254 993 l 254 1194 l 543 1338 l 831 1194 l 831 993 l 543 1137 l 254 993 z "},"Õ":{"ha":1187,"x_min":-17,"x_max":1102,"o":"m 475 -14 q 126 130 270 -14 q -17 475 -17 273 q 126 820 -17 676 q 475 963 270 963 l 610 963 q 959 820 815 963 q 1102 475 1102 676 q 959 130 1102 273 q 610 -14 815 -14 l 475 -14 m 610 183 q 813 268 728 183 q 899 475 899 353 q 813 681 899 596 q 610 766 728 766 l 475 766 q 272 681 357 766 q 186 475 186 596 q 272 268 186 353 q 475 183 357 183 l 610 183 m 519 1055 q 477 1080 519 1055 q 407 1105 435 1105 q 354 1077 386 1105 q 322 1004 322 1049 l 119 1004 q 208 1213 119 1124 q 407 1302 297 1302 q 565 1251 480 1302 q 679 1200 650 1200 q 734 1228 705 1200 q 763 1302 763 1256 l 966 1302 q 877 1093 966 1182 q 678 1004 788 1004 q 519 1055 604 1004 z "},"Ö":{"ha":1187,"x_min":-17,"x_max":1102,"o":"m 475 -14 q 126 130 270 -14 q -17 475 -17 273 q 126 820 -17 676 q 475 963 270 963 l 610 963 q 959 820 815 963 q 1102 475 1102 676 q 959 130 1102 273 q 610 -14 815 -14 l 475 -14 m 610 183 q 813 268 728 183 q 899 475 899 353 q 813 681 899 596 q 610 766 728 766 l 475 766 q 272 681 357 766 q 186 475 186 596 q 272 268 186 353 q 475 183 357 183 l 610 183 m 339 1004 q 255 1038 289 1004 q 220 1119 220 1072 q 255 1200 220 1166 q 339 1234 289 1234 q 424 1200 389 1234 q 458 1119 458 1166 q 424 1038 458 1072 q 339 1004 389 1004 m 746 1004 q 662 1038 696 1004 q 627 1119 627 1072 q 662 1200 627 1166 q 746 1234 696 1234 q 830 1200 796 1234 q 865 1119 865 1166 q 830 1038 865 1072 q 746 1004 796 1004 z "},"×":{"ha":848,"x_min":-67,"x_max":813,"o":"m 250 475 l -67 827 l 178 827 l 373 611 l 568 827 l 813 827 l 496 475 l 813 122 l 568 122 l 373 338 l 178 122 l -67 122 l 250 475 z "},"Ø":{"ha":1187,"x_min":-17,"x_max":1102,"o":"m 667 762 q 610 766 651 766 l 475 766 q 272 681 357 766 q 186 475 186 596 q 257 283 186 355 l 667 762 m 418 187 q 475 183 434 183 l 610 183 q 813 268 728 183 q 899 475 899 353 q 828 666 899 595 l 418 187 m 127 130 q -17 475 -17 273 q 126 820 -17 676 q 475 963 270 963 l 610 963 q 806 925 724 963 l 839 963 l 1083 963 l 960 819 l 958 820 q 1102 475 1102 676 q 959 130 1102 273 q 610 -14 815 -14 l 475 -14 q 279 24 361 -14 l 246 -14 l 2 -14 l 125 131 l 127 130 z "},"Ù":{"ha":1051,"x_min":-17,"x_max":966,"o":"m 763 963 l 966 963 l 966 475 q 823 130 966 273 q 475 -14 680 -14 q 126 130 270 -14 q -17 475 -17 273 l -17 963 l 186 963 l 186 475 q 272 268 186 353 q 475 183 357 183 q 678 268 593 183 q 763 475 763 353 l 763 963 m 186 1248 l 186 1302 l 551 1302 l 763 1055 l 763 1004 l 605 1004 l 186 1248 z "},"Ú":{"ha":1051,"x_min":-17,"x_max":966,"o":"m 763 963 l 966 963 l 966 475 q 823 130 966 273 q 475 -14 680 -14 q 126 130 270 -14 q -17 475 -17 273 l -17 963 l 186 963 l 186 475 q 272 268 186 353 q 475 183 357 183 q 678 268 593 183 q 763 475 763 353 l 763 963 m 345 1004 l 186 1004 l 186 1055 l 398 1302 l 763 1302 l 763 1248 l 345 1004 z "},"Û":{"ha":1051,"x_min":-17,"x_max":966,"o":"m 763 963 l 966 963 l 966 475 q 823 130 966 273 q 475 -14 680 -14 q 126 130 270 -14 q -17 475 -17 273 l -17 963 l 186 963 l 186 475 q 272 268 186 353 q 475 183 357 183 q 678 268 593 183 q 763 475 763 353 l 763 963 m 186 993 l 186 1194 l 475 1338 l 763 1194 l 763 993 l 475 1137 l 186 993 z "},"Ü":{"ha":1051,"x_min":-17,"x_max":966,"o":"m 763 963 l 966 963 l 966 475 q 823 130 966 273 q 475 -14 680 -14 q 126 130 270 -14 q -17 475 -17 273 l -17 963 l 186 963 l 186 475 q 272 268 186 353 q 475 183 357 183 q 678 268 593 183 q 763 475 763 353 l 763 963 m 271 1004 q 187 1038 221 1004 q 153 1119 153 1072 q 187 1200 153 1166 q 271 1234 221 1234 q 356 1200 321 1234 q 390 1119 390 1166 q 356 1038 390 1072 q 271 1004 321 1004 m 678 1004 q 594 1038 628 1004 q 559 1119 559 1072 q 594 1200 559 1166 q 678 1234 628 1234 q 763 1200 728 1234 q 797 1119 797 1166 q 763 1038 797 1072 q 678 1004 728 1004 z "},"Ý":{"ha":1051,"x_min":-66,"x_max":1015,"o":"m 373 451 l 359 467 l -66 963 l 178 963 l 475 617 l 771 963 l 1015 963 l 591 467 l 576 451 l 576 -14 l 517 -14 l 373 131 l 373 451 m 345 1004 l 186 1004 l 186 1055 l 398 1302 l 763 1302 l 763 1248 l 345 1004 z "},"Þ":{"ha":983,"x_min":-17,"x_max":899,"o":"m 543 122 l 220 122 l 220 319 l 543 319 q 650 364 605 319 q 695 475 695 409 q 650 586 695 541 q 543 631 605 631 l 186 631 l 186 -14 l 127 -14 l -17 131 l -17 963 l 186 963 l 186 827 l 543 827 q 795 724 691 827 q 899 475 899 620 q 795 226 899 330 q 543 122 691 122 z "},"ß":{"ha":983,"x_min":-17,"x_max":899,"o":"m 812 475 l 814 473 q 899 271 899 389 q 815 70 899 154 q 610 -14 731 -14 l 220 -14 l 220 39 l 365 183 l 610 183 q 669 213 644 183 q 695 288 695 243 q 669 363 695 333 q 610 393 644 393 l 220 393 l 220 446 l 331 556 l 610 556 q 669 586 644 556 q 695 661 695 616 q 669 736 695 707 q 610 766 644 766 l 271 766 q 212 736 238 766 q 186 661 186 707 l 186 -13 l 127 -14 l -17 131 l -17 678 q 67 879 -17 795 q 271 963 151 963 l 610 963 q 815 879 731 963 q 899 678 899 795 q 814 477 899 561 l 812 475 z "},"à":{"ha":780,"x_min":-17,"x_max":695,"o":"m 492 183 l 492 339 q 447 450 492 405 q 339 495 401 495 l -17 495 l -17 547 l 127 692 l 339 692 q 591 588 488 692 q 695 339 695 484 l 695 -14 l 203 -14 q 47 51 111 -14 q -17 203 -17 115 q 47 356 -17 292 q 203 420 111 420 l 458 420 l 458 368 l 347 258 l 203 258 q 193 248 199 258 q 186 220 186 238 q 193 193 186 203 q 203 183 199 183 l 492 183 m 51 977 l 51 1031 l 416 1031 l 627 784 l 627 732 l 469 732 l 51 977 z "},"á":{"ha":780,"x_min":-17,"x_max":695,"o":"m 492 183 l 492 339 q 447 450 492 405 q 339 495 401 495 l -17 495 l -17 547 l 127 692 l 339 692 q 591 588 488 692 q 695 339 695 484 l 695 -14 l 203 -14 q 47 51 111 -14 q -17 203 -17 115 q 47 356 -17 292 q 203 420 111 420 l 458 420 l 458 368 l 347 258 l 203 258 q 193 248 199 258 q 186 220 186 238 q 193 193 186 203 q 203 183 199 183 l 492 183 m 209 732 l 51 732 l 51 784 l 262 1031 l 627 1031 l 627 977 l 209 732 z "},"â":{"ha":780,"x_min":-17,"x_max":695,"o":"m 492 183 l 492 339 q 447 450 492 405 q 339 495 401 495 l -17 495 l -17 547 l 127 692 l 339 692 q 591 588 488 692 q 695 339 695 484 l 695 -14 l 203 -14 q 47 51 111 -14 q -17 203 -17 115 q 47 356 -17 292 q 203 420 111 420 l 458 420 l 458 368 l 347 258 l 203 258 q 193 248 199 258 q 186 220 186 238 q 193 193 186 203 q 203 183 199 183 l 492 183 m 51 722 l 51 923 l 339 1067 l 627 923 l 627 722 l 339 866 l 51 722 z "},"ã":{"ha":780,"x_min":-85,"x_max":763,"o":"m 492 183 l 492 339 q 447 450 492 405 q 339 495 401 495 l -17 495 l -17 547 l 127 692 l 339 692 q 591 588 488 692 q 695 339 695 484 l 695 -14 l 203 -14 q 47 51 111 -14 q -17 203 -17 115 q 47 356 -17 292 q 203 420 111 420 l 458 420 l 458 368 l 347 258 l 203 258 q 193 248 199 258 q 186 220 186 238 q 193 193 186 203 q 203 183 199 183 l 492 183 m 316 783 q 274 809 316 783 q 203 834 231 834 q 151 806 182 834 q 119 732 119 778 l -85 732 q 4 942 -85 853 q 203 1031 94 1031 q 361 980 277 1031 q 475 929 446 929 q 530 957 501 929 q 559 1031 559 985 l 763 1031 q 674 822 763 911 q 475 732 585 732 q 316 783 401 732 z "},"ä":{"ha":780,"x_min":-17,"x_max":695,"o":"m 492 183 l 492 339 q 447 450 492 405 q 339 495 401 495 l -17 495 l -17 547 l 127 692 l 339 692 q 591 588 488 692 q 695 339 695 484 l 695 -14 l 203 -14 q 47 51 111 -14 q -17 203 -17 115 q 47 356 -17 292 q 203 420 111 420 l 458 420 l 458 368 l 347 258 l 203 258 q 193 248 199 258 q 186 220 186 238 q 193 193 186 203 q 203 183 199 183 l 492 183 m 136 732 q 51 767 85 732 q 17 848 17 801 q 51 929 17 895 q 136 963 85 963 q 220 929 186 963 q 254 848 254 895 q 220 767 254 801 q 136 732 186 732 m 543 732 q 458 767 492 732 q 424 848 424 801 q 458 929 424 895 q 543 963 492 963 q 627 929 593 963 q 661 848 661 895 q 627 767 661 801 q 543 732 593 732 z "},"å":{"ha":780,"x_min":-17,"x_max":695,"o":"m 492 183 l 492 339 q 447 450 492 405 q 339 495 401 495 l -17 495 l -17 547 l 127 692 l 339 692 q 591 588 488 692 q 695 339 695 484 l 695 -14 l 203 -14 q 47 51 111 -14 q -17 203 -17 115 q 47 356 -17 292 q 203 420 111 420 l 458 420 l 458 368 l 347 258 l 203 258 q 193 248 199 258 q 186 220 186 238 q 193 193 186 203 q 203 183 199 183 l 492 183 m 339 732 q 159 791 234 732 q 85 932 85 850 q 159 1074 85 1015 q 339 1133 234 1133 q 519 1074 444 1133 q 593 932 593 1015 q 519 791 593 850 q 339 732 444 732 m 339 895 q 375 906 360 895 q 390 932 390 918 q 375 959 390 947 q 339 970 360 970 q 303 959 318 970 q 288 932 288 947 q 303 906 288 918 q 339 895 318 895 z "},"æ":{"ha":1289,"x_min":-17,"x_max":1204,"o":"m 593 587 l 591 583 l 594 587 l 596 589 q 848 692 699 692 l 983 692 q 1140 628 1076 692 q 1204 475 1204 564 q 1140 322 1204 386 q 983 258 1076 258 l 729 258 l 729 310 l 840 420 l 983 420 q 994 430 987 420 q 1000 458 1000 440 q 994 485 1000 475 q 983 495 987 495 l 848 495 q 740 450 785 495 q 695 339 695 405 q 740 228 695 273 q 848 183 785 183 l 1204 183 l 1204 131 l 1059 -14 l 848 -14 q 695 18 748 -14 l 695 -14 l 203 -14 q 47 51 111 -14 q -17 203 -17 115 q 47 356 -17 292 q 203 420 111 420 l 458 420 l 458 368 l 347 258 l 203 258 q 193 248 199 258 q 186 220 186 238 q 193 193 186 203 q 203 183 199 183 l 492 183 l 492 339 q 447 450 492 405 q 339 495 401 495 l -17 495 l -17 547 l 127 692 l 339 692 q 593 587 488 692 l 593 587 z "},"ç":{"ha":780,"x_min":-17,"x_max":695,"o":"m 322 -14 q 87 90 191 -14 q -17 339 -17 194 q 87 588 -17 484 q 339 692 191 692 l 695 692 l 695 640 l 551 495 l 339 495 q 232 450 277 495 q 186 339 186 405 q 232 228 186 273 q 339 183 277 183 l 695 183 l 695 131 l 551 -14 l 526 -14 l 526 -34 q 461 -187 526 -123 q 305 -251 397 -251 l 161 -251 l 17 -106 l 17 -54 l 305 -54 q 316 -44 309 -54 q 322 -17 322 -35 l 322 -14 z "},"è":{"ha":780,"x_min":-17,"x_max":695,"o":"m 339 495 q 232 450 277 495 q 186 339 186 405 q 232 228 186 273 q 339 183 277 183 l 695 183 l 695 131 l 551 -14 l 339 -14 q 87 90 191 -14 q -17 339 -17 194 q 87 588 -17 484 q 339 692 191 692 l 475 692 q 631 628 567 692 q 695 475 695 564 q 631 322 695 386 q 475 258 567 258 l 220 258 l 220 310 l 331 420 l 475 420 q 485 430 479 420 q 492 458 492 440 q 485 485 492 475 q 475 495 479 495 l 339 495 m 51 977 l 51 1031 l 416 1031 l 627 784 l 627 732 l 469 732 l 51 977 z "},"é":{"ha":780,"x_min":-17,"x_max":695,"o":"m 339 495 q 232 450 277 495 q 186 339 186 405 q 232 228 186 273 q 339 183 277 183 l 695 183 l 695 131 l 551 -14 l 339 -14 q 87 90 191 -14 q -17 339 -17 194 q 87 588 -17 484 q 339 692 191 692 l 475 692 q 631 628 567 692 q 695 475 695 564 q 631 322 695 386 q 475 258 567 258 l 220 258 l 220 310 l 331 420 l 475 420 q 485 430 479 420 q 492 458 492 440 q 485 485 492 475 q 475 495 479 495 l 339 495 m 209 732 l 51 732 l 51 784 l 262 1031 l 627 1031 l 627 977 l 209 732 z "},"ê":{"ha":780,"x_min":-17,"x_max":695,"o":"m 339 495 q 232 450 277 495 q 186 339 186 405 q 232 228 186 273 q 339 183 277 183 l 695 183 l 695 131 l 551 -14 l 339 -14 q 87 90 191 -14 q -17 339 -17 194 q 87 588 -17 484 q 339 692 191 692 l 475 692 q 631 628 567 692 q 695 475 695 564 q 631 322 695 386 q 475 258 567 258 l 220 258 l 220 310 l 331 420 l 475 420 q 485 430 479 420 q 492 458 492 440 q 485 485 492 475 q 475 495 479 495 l 339 495 m 51 722 l 51 923 l 339 1067 l 627 923 l 627 722 l 339 866 l 51 722 z "},"ë":{"ha":780,"x_min":-17,"x_max":695,"o":"m 339 495 q 232 450 277 495 q 186 339 186 405 q 232 228 186 273 q 339 183 277 183 l 695 183 l 695 131 l 551 -14 l 339 -14 q 87 90 191 -14 q -17 339 -17 194 q 87 588 -17 484 q 339 692 191 692 l 475 692 q 631 628 567 692 q 695 475 695 564 q 631 322 695 386 q 475 258 567 258 l 220 258 l 220 310 l 331 420 l 475 420 q 485 430 479 420 q 492 458 492 440 q 485 485 492 475 q 475 495 479 495 l 339 495 m 136 732 q 51 767 85 732 q 17 848 17 801 q 51 929 17 895 q 136 963 85 963 q 220 929 186 963 q 254 848 254 895 q 220 767 254 801 q 136 732 186 732 m 543 732 q 458 767 492 732 q 424 848 424 801 q 458 929 424 895 q 543 963 492 963 q 627 929 593 963 q 661 848 661 895 q 627 767 661 801 q 543 732 593 732 z "},"ì":{"ha":271,"x_min":-203,"x_max":373,"o":"m -17 692 l 186 692 l 186 -14 l 127 -14 l -17 131 l -17 692 m -203 977 l -203 1031 l 161 1031 l 373 784 l 373 732 l 215 732 l -203 977 z "},"í":{"ha":271,"x_min":-203,"x_max":373,"o":"m -17 692 l 186 692 l 186 -14 l 127 -14 l -17 131 l -17 692 m -45 732 l -203 732 l -203 784 l 8 1031 l 373 1031 l 373 977 l -45 732 z "},"î":{"ha":271,"x_min":-203,"x_max":373,"o":"m -17 692 l 186 692 l 186 -14 l 127 -14 l -17 131 l -17 692 m -203 722 l -203 923 l 85 1067 l 373 923 l 373 722 l 85 866 l -203 722 z "},"ï":{"ha":271,"x_min":-237,"x_max":407,"o":"m -17 692 l 186 692 l 186 -14 l 127 -14 l -17 131 l -17 692 m -119 732 q -203 767 -169 732 q -237 848 -237 801 q -203 929 -237 895 q -119 963 -169 963 q -34 929 -68 963 q 0 848 0 895 q -34 767 0 801 q -119 732 -68 732 m 288 732 q 204 767 238 732 q 170 848 170 801 q 204 929 170 895 q 288 963 238 963 q 373 929 338 963 q 407 848 407 895 q 373 767 407 801 q 288 732 338 732 z "},"ð":{"ha":848,"x_min":-17,"x_max":763,"o":"m 492 495 l 339 495 q 232 450 277 495 q 186 339 186 405 q 232 228 186 273 q 339 183 277 183 l 492 183 l 492 495 m 695 692 l 763 692 l 763 495 l 695 495 l 695 -14 l 339 -14 q 87 90 191 -14 q -17 339 -17 194 q 87 588 -17 484 q 339 692 191 692 l 492 692 l 492 729 q 485 756 492 747 q 475 766 479 766 l 85 766 l 85 819 l 229 963 l 475 963 q 631 899 567 963 q 695 746 695 835 l 695 692 z "},"ñ":{"ha":848,"x_min":-51,"x_max":797,"o":"m 407 692 q 659 588 555 692 q 763 339 763 484 l 763 -14 l 559 -14 l 559 339 q 514 450 559 405 q 407 495 469 495 l 186 495 l 186 -14 l -17 -14 l -17 692 l 407 692 m 350 783 q 308 809 350 783 q 237 834 265 834 q 184 806 216 834 q 153 732 153 778 l -51 732 q 38 942 -51 853 q 237 1031 127 1031 q 395 980 311 1031 q 509 929 480 929 q 564 957 535 929 q 593 1031 593 985 l 797 1031 q 708 822 797 911 q 509 732 618 732 q 350 783 435 732 z "},"ò":{"ha":848,"x_min":-17,"x_max":763,"o":"m 339 -14 q 87 90 191 -14 q -17 339 -17 194 q 87 588 -17 484 q 339 692 191 692 l 408 692 q 659 588 555 692 q 763 339 763 484 q 659 90 763 194 q 408 -14 555 -14 l 339 -14 m 407 183 q 514 228 469 183 q 559 339 559 273 q 514 450 559 405 q 408 495 469 495 l 339 495 q 232 450 277 495 q 186 339 186 405 q 232 228 186 273 q 339 183 277 183 l 407 183 m 85 977 l 85 1031 l 450 1031 l 661 784 l 661 732 l 503 732 l 85 977 z "},"ó":{"ha":848,"x_min":-17,"x_max":763,"o":"m 339 -14 q 87 90 191 -14 q -17 339 -17 194 q 87 588 -17 484 q 339 692 191 692 l 408 692 q 659 588 555 692 q 763 339 763 484 q 659 90 763 194 q 408 -14 555 -14 l 339 -14 m 407 183 q 514 228 469 183 q 559 339 559 273 q 514 450 559 405 q 408 495 469 495 l 339 495 q 232 450 277 495 q 186 339 186 405 q 232 228 186 273 q 339 183 277 183 l 407 183 m 243 732 l 85 732 l 85 784 l 296 1031 l 661 1031 l 661 977 l 243 732 z "},"ô":{"ha":848,"x_min":-17,"x_max":763,"o":"m 339 -14 q 87 90 191 -14 q -17 339 -17 194 q 87 588 -17 484 q 339 692 191 692 l 408 692 q 659 588 555 692 q 763 339 763 484 q 659 90 763 194 q 408 -14 555 -14 l 339 -14 m 407 183 q 514 228 469 183 q 559 339 559 273 q 514 450 559 405 q 408 495 469 495 l 339 495 q 232 450 277 495 q 186 339 186 405 q 232 228 186 273 q 339 183 277 183 l 407 183 m 85 722 l 85 923 l 373 1067 l 661 923 l 661 722 l 373 866 l 85 722 z "},"õ":{"ha":848,"x_min":-51,"x_max":797,"o":"m 339 -14 q 87 90 191 -14 q -17 339 -17 194 q 87 588 -17 484 q 339 692 191 692 l 408 692 q 659 588 555 692 q 763 339 763 484 q 659 90 763 194 q 408 -14 555 -14 l 339 -14 m 407 183 q 514 228 469 183 q 559 339 559 273 q 514 450 559 405 q 408 495 469 495 l 339 495 q 232 450 277 495 q 186 339 186 405 q 232 228 186 273 q 339 183 277 183 l 407 183 m 350 783 q 308 809 350 783 q 237 834 265 834 q 184 806 216 834 q 153 732 153 778 l -51 732 q 38 942 -51 853 q 237 1031 127 1031 q 395 980 311 1031 q 509 929 480 929 q 564 957 535 929 q 593 1031 593 985 l 797 1031 q 708 822 797 911 q 509 732 618 732 q 350 783 435 732 z "},"ö":{"ha":848,"x_min":-17,"x_max":763,"o":"m 339 -14 q 87 90 191 -14 q -17 339 -17 194 q 87 588 -17 484 q 339 692 191 692 l 408 692 q 659 588 555 692 q 763 339 763 484 q 659 90 763 194 q 408 -14 555 -14 l 339 -14 m 407 183 q 514 228 469 183 q 559 339 559 273 q 514 450 559 405 q 408 495 469 495 l 339 495 q 232 450 277 495 q 186 339 186 405 q 232 228 186 273 q 339 183 277 183 l 407 183 m 170 732 q 85 767 119 732 q 51 848 51 801 q 85 929 51 895 q 170 963 119 963 q 254 929 220 963 q 288 848 288 895 q 254 767 288 801 q 170 732 220 732 m 576 732 q 492 767 526 732 q 458 848 458 801 q 492 929 458 895 q 576 963 526 963 q 661 929 627 963 q 695 848 695 895 q 661 767 695 801 q 576 732 627 732 z "},"÷":{"ha":916,"x_min":-17,"x_max":831,"o":"m 831 590 l 831 538 l 686 393 l -17 393 l -17 590 l 831 590 m 407 88 q 322 122 357 88 q 288 203 288 157 q 322 284 288 250 q 407 319 357 319 q 491 284 457 319 q 526 203 526 250 q 491 122 526 157 q 407 88 457 88 m 407 665 q 322 699 357 665 q 288 780 288 733 q 322 861 288 827 q 407 895 357 895 q 491 861 457 895 q 526 780 526 827 q 491 699 526 733 q 407 665 457 665 z "},"ø":{"ha":848,"x_min":-17,"x_max":763,"o":"m 361 495 l 339 495 q 232 450 277 495 q 186 339 186 405 q 201 267 186 286 l 361 495 m 385 183 l 407 183 q 514 228 469 183 q 559 339 559 273 q 545 412 559 393 l 385 183 m 665 583 q 763 339 763 479 q 659 90 763 194 q 408 -14 555 -14 l 339 -14 q 254 -4 288 -14 l 247 -14 l 5 -14 l 81 96 l 85 93 q -17 339 -17 194 q 87 588 -17 484 q 339 692 191 692 l 408 692 q 492 682 459 692 l 498 692 l 741 692 l 665 583 z "},"ù":{"ha":848,"x_min":-17,"x_max":763,"o":"m 407 183 q 514 228 469 183 q 559 339 559 273 l 559 692 l 763 692 l 763 339 q 659 90 763 194 q 407 -14 555 -14 l 339 -14 q 87 90 191 -14 q -17 339 -17 194 l -17 692 l 186 692 l 186 339 q 232 228 186 273 q 339 183 277 183 l 407 183 m 85 977 l 85 1031 l 450 1031 l 661 784 l 661 732 l 503 732 l 85 977 z "},"ú":{"ha":848,"x_min":-17,"x_max":763,"o":"m 407 183 q 514 228 469 183 q 559 339 559 273 l 559 692 l 763 692 l 763 339 q 659 90 763 194 q 407 -14 555 -14 l 339 -14 q 87 90 191 -14 q -17 339 -17 194 l -17 692 l 186 692 l 186 339 q 232 228 186 273 q 339 183 277 183 l 407 183 m 243 732 l 85 732 l 85 784 l 296 1031 l 661 1031 l 661 977 l 243 732 z "},"û":{"ha":848,"x_min":-17,"x_max":763,"o":"m 407 183 q 514 228 469 183 q 559 339 559 273 l 559 692 l 763 692 l 763 339 q 659 90 763 194 q 407 -14 555 -14 l 339 -14 q 87 90 191 -14 q -17 339 -17 194 l -17 692 l 186 692 l 186 339 q 232 228 186 273 q 339 183 277 183 l 407 183 m 85 722 l 85 923 l 373 1067 l 661 923 l 661 722 l 373 866 l 85 722 z "},"ü":{"ha":848,"x_min":-17,"x_max":763,"o":"m 407 183 q 514 228 469 183 q 559 339 559 273 l 559 692 l 763 692 l 763 339 q 659 90 763 194 q 407 -14 555 -14 l 339 -14 q 87 90 191 -14 q -17 339 -17 194 l -17 692 l 186 692 l 186 339 q 232 228 186 273 q 339 183 277 183 l 407 183 m 170 732 q 85 767 119 732 q 51 848 51 801 q 85 929 51 895 q 170 963 119 963 q 254 929 220 963 q 288 848 288 895 q 254 767 288 801 q 170 732 220 732 m 576 732 q 492 767 526 732 q 458 848 458 801 q 492 929 458 895 q 576 963 526 963 q 661 929 627 963 q 695 848 695 895 q 661 767 695 801 q 576 732 627 732 z "},"ý":{"ha":848,"x_min":-57,"x_max":803,"o":"m 187 -285 l 296 -14 l 225 -14 l -57 692 l 165 692 l 372 174 l 581 692 l 803 692 l 409 -285 l 187 -285 m 243 732 l 85 732 l 85 784 l 296 1031 l 661 1031 l 661 977 l 243 732 z "},"þ":{"ha":848,"x_min":-17,"x_max":763,"o":"m 186 692 l 407 692 q 659 588 555 692 q 763 339 763 484 q 659 90 763 194 q 407 -14 555 -14 l 220 -14 l 220 39 l 365 183 l 407 183 q 514 228 469 183 q 559 339 559 273 q 514 450 559 405 q 407 495 469 495 l 186 495 l 186 -285 l 127 -285 l -17 -140 l -17 963 l 186 963 l 186 692 z "},"ÿ":{"ha":848,"x_min":-57,"x_max":803,"o":"m 187 -285 l 296 -14 l 225 -14 l -57 692 l 165 692 l 372 174 l 581 692 l 803 692 l 409 -285 l 187 -285 m 170 732 q 85 767 119 732 q 51 848 51 801 q 85 929 51 895 q 170 963 119 963 q 254 929 220 963 q 288 848 288 895 q 254 767 288 801 q 170 732 220 732 m 576 732 q 492 767 526 732 q 458 848 458 801 q 492 929 458 895 q 576 963 526 963 q 661 929 627 963 q 695 848 695 895 q 661 767 695 801 q 576 732 627 732 z "},"ı":{"ha":271,"x_min":-17,"x_max":186,"o":"m -17 692 l 186 692 l 186 -14 l 127 -14 l -17 131 l -17 692 z "},"ˆ":{"ha":644,"x_min":-17,"x_max":559,"o":"m -17 993 l -17 1194 l 271 1338 l 559 1194 l 559 993 l 271 1137 l -17 993 z "},"ˇ":{"ha":644,"x_min":-17,"x_max":559,"o":"m 271 1202 l 559 1347 l 559 1145 l 271 1002 l -17 1145 l -17 1347 l 271 1202 z "},"ˉ":{"ha":624,"x_min":223,"x_max":607,"o":"m 223 797 l 223 909 l 607 909 l 607 797 l 223 797 z "},"˘":{"ha":646,"x_min":197,"x_max":631,"o":"m 197 928 l 265 928 q 312 853 278 873 q 415 833 347 833 q 517 852 484 833 q 564 928 551 872 l 631 928 q 561 769 615 819 q 415 718 506 718 q 270 769 325 718 q 197 928 214 820 z "},"˙":{"ha":305,"x_min":51,"x_max":288,"o":"m 170 1072 q 85 1106 119 1072 q 51 1187 51 1140 q 85 1268 51 1234 q 170 1302 119 1302 q 254 1268 220 1302 q 288 1187 288 1234 q 254 1106 288 1140 q 170 1072 220 1072 z "},"˚":{"ha":509,"x_min":-17,"x_max":492,"o":"m 237 1004 q 58 1062 132 1004 q -17 1204 -17 1121 q 58 1345 -17 1286 q 237 1404 132 1404 q 417 1345 342 1404 q 492 1204 492 1286 q 417 1062 492 1121 q 237 1004 342 1004 m 237 1166 q 273 1178 258 1166 q 288 1204 288 1189 q 273 1230 288 1219 q 237 1241 258 1241 q 201 1230 216 1241 q 186 1204 186 1219 q 201 1178 186 1189 q 237 1166 216 1166 z "},"˛":{"ha":602,"x_min":301,"x_max":589,"o":"m 541 14 q 442 -87 467 -50 q 417 -157 417 -123 q 431 -199 417 -184 q 468 -214 445 -214 q 506 -205 490 -214 q 542 -163 522 -197 l 589 -190 q 516 -272 557 -246 q 425 -297 475 -297 q 336 -269 371 -297 q 301 -198 301 -241 q 345 -85 301 -143 q 464 14 388 -28 l 541 14 z "},"˜":{"ha":916,"x_min":-17,"x_max":831,"o":"m 384 1055 q 341 1080 384 1055 q 271 1105 299 1105 q 218 1077 250 1105 q 186 1004 186 1049 l -17 1004 q 72 1213 -17 1124 q 271 1302 161 1302 q 429 1251 345 1302 q 543 1200 514 1200 q 598 1228 569 1200 q 627 1302 627 1256 l 831 1302 q 742 1093 831 1182 q 543 1004 652 1004 q 384 1055 469 1004 z "},"˝":{"ha":648,"x_min":189,"x_max":631,"o":"m 189 718 l 297 922 q 333 970 315 954 q 375 986 351 986 q 420 968 402 986 q 438 927 438 950 q 430 899 438 913 q 407 867 422 884 l 262 718 l 189 718 m 382 718 l 490 922 q 526 970 508 954 q 568 986 544 986 q 613 968 595 986 q 631 927 631 950 q 623 899 631 913 q 600 867 615 884 l 456 718 l 382 718 z "},"–":{"ha":983,"x_min":-17,"x_max":899,"o":"m 899 590 l 899 538 l 754 393 l -17 393 l -17 590 l 899 590 z "},"—":{"ha":1051,"x_min":-17,"x_max":966,"o":"m 966 590 l 966 538 l 822 393 l -17 393 l -17 590 l 966 590 z "},"‘":{"ha":305,"x_min":-17,"x_max":220,"o":"m 220 678 q 186 597 220 631 q 102 563 152 563 q 17 597 52 563 q -17 678 -17 631 l -17 785 l 161 963 l 220 963 l 220 678 z "},"’":{"ha":305,"x_min":-17,"x_max":220,"o":"m -17 848 q 17 929 -17 895 q 102 963 52 963 q 186 929 152 963 q 220 848 220 895 l 220 741 l 42 563 l -17 563 l -17 848 z "},"‚":{"ha":305,"x_min":-17,"x_max":220,"o":"m -17 102 q 17 183 -17 149 q 102 217 52 217 q 186 183 152 217 q 220 102 220 149 l 220 -5 l 42 -183 l -17 -183 l -17 102 z "},"“":{"ha":576,"x_min":-17,"x_max":492,"o":"m 492 678 q 457 597 492 631 q 373 563 423 563 q 289 597 323 563 q 254 678 254 631 l 254 785 l 433 963 l 492 963 l 492 678 m 220 678 q 186 597 220 631 q 102 563 152 563 q 17 597 52 563 q -17 678 -17 631 l -17 785 l 161 963 l 220 963 l 220 678 z "},"”":{"ha":576,"x_min":-17,"x_max":492,"o":"m -17 848 q 17 929 -17 895 q 102 963 52 963 q 186 929 152 963 q 220 848 220 895 l 220 741 l 42 563 l -17 563 l -17 848 m 254 848 q 289 929 254 895 q 373 963 323 963 q 457 929 423 963 q 492 848 492 895 l 492 741 l 313 563 l 254 563 l 254 848 z "},"„":{"ha":576,"x_min":-17,"x_max":492,"o":"m -17 102 q 17 183 -17 149 q 102 217 52 217 q 186 183 152 217 q 220 102 220 149 l 220 -5 l 42 -183 l -17 -183 l -17 102 m 254 102 q 289 183 254 149 q 373 217 323 217 q 457 183 423 217 q 492 102 492 149 l 492 -5 l 313 -183 l 254 -183 l 254 102 z "},"†":{"ha":742,"x_min":99,"x_max":725,"o":"m 379 709 q 345 808 375 755 q 305 901 305 880 q 335 964 305 940 q 412 988 364 988 q 488 966 457 988 q 518 907 518 943 q 479 809 518 883 q 445 708 450 753 q 537 741 486 711 q 634 782 610 782 q 701 753 676 782 q 725 679 725 724 q 703 606 725 637 q 640 576 680 576 q 538 615 614 576 q 444 650 484 645 q 519 481 449 551 q 442 -197 446 164 l 382 -197 q 304 481 378 164 q 380 650 374 551 q 286 617 338 646 q 189 576 214 576 q 123 605 147 576 q 99 679 99 634 q 121 751 99 721 q 183 782 144 782 q 286 742 210 782 q 379 709 340 712 z "},"‡":{"ha":741,"x_min":98,"x_max":724,"o":"m 444 142 q 538 176 484 146 q 640 216 613 216 q 702 185 680 216 q 724 113 724 155 q 700 39 724 68 q 633 9 675 9 q 536 51 609 9 q 444 83 485 80 q 479 -18 449 38 q 517 -116 517 -92 q 487 -174 517 -152 q 411 -197 456 -197 q 334 -173 363 -197 q 304 -110 304 -149 q 345 -17 304 -88 q 378 83 374 36 q 285 50 339 79 q 182 9 209 9 q 121 40 143 9 q 98 113 98 71 q 122 186 98 157 q 189 216 146 216 q 286 174 213 216 q 379 142 338 146 q 302 396 374 276 q 379 650 374 515 q 286 617 338 646 q 189 576 213 576 q 122 605 146 576 q 98 679 98 634 q 121 751 98 721 q 182 782 143 782 q 285 742 209 782 q 378 709 339 712 q 345 808 374 755 q 304 901 304 880 q 334 964 304 940 q 411 988 363 988 q 487 966 456 988 q 517 907 517 943 q 479 809 517 883 q 444 708 449 753 q 536 741 485 711 q 633 782 609 782 q 700 753 675 782 q 724 679 724 724 q 702 606 724 637 q 640 576 680 576 q 538 615 613 576 q 444 650 484 645 q 519 396 448 515 q 444 142 448 276 z "},"•":{"ha":650,"x_min":197,"x_max":633,"o":"m 197 487 q 261 638 197 575 q 416 701 324 701 q 570 637 507 701 q 633 487 633 574 q 569 336 633 399 q 414 272 505 272 q 260 335 323 272 q 197 487 197 399 z "},"…":{"ha":848,"x_min":-17,"x_max":763,"o":"m 644 -14 q 560 21 594 -14 q 526 102 526 55 q 560 183 526 149 q 644 217 594 217 q 729 183 694 217 q 763 102 763 149 q 729 21 763 55 q 644 -14 694 -14 m 373 -14 q 289 21 323 -14 q 254 102 254 55 q 289 183 254 149 q 373 217 323 217 q 457 183 423 217 q 492 102 492 149 q 457 21 492 55 q 373 -14 423 -14 m 102 -14 q 17 21 52 -14 q -17 102 -17 55 q 17 183 -17 149 q 102 217 52 217 q 186 183 152 217 q 220 102 220 149 q 186 21 220 55 q 102 -14 152 -14 z "},"‹":{"ha":576,"x_min":-22,"x_max":544,"o":"m 225 475 l 544 156 l 297 156 l -22 475 l 297 793 l 544 793 l 225 475 z "},"›":{"ha":576,"x_min":-35,"x_max":530,"o":"m -35 793 l 212 793 l 530 475 l 212 156 l -35 156 l 283 475 l -35 793 z "},"⁄":{"ha":1051,"x_min":-66,"x_max":1015,"o":"m 771 963 l 1015 963 l 178 -14 l -66 -14 l 771 963 z "},"∕":{"ha":1051,"x_min":-66,"x_max":1015,"o":"m 771 963 l 1015 963 l 178 -14 l -66 -14 l 771 963 z "},"₣":{"ha":916,"x_min":-17,"x_max":831,"o":"m 831 556 l 831 504 l 720 393 l 356 393 l 356 556 l 831 556 m 322 -14 l 322 -217 l 263 -217 l 119 -73 l 119 -14 l -17 -14 l -17 183 l 119 183 l 119 963 l 831 963 l 831 911 l 686 766 l 322 766 l 322 183 l 526 183 l 526 131 l 381 -14 l 322 -14 z "},"₤":{"ha":983,"x_min":-17,"x_max":899,"o":"m 288 258 l 288 183 l 899 183 l 899 131 l 754 -14 l -17 -14 l -17 183 l 85 183 l 85 258 l -17 258 l -17 420 l 85 420 l 85 495 l -17 495 l -17 658 l 85 658 l 85 746 q 149 899 85 835 q 305 963 213 963 l 729 963 l 729 911 l 585 766 l 305 766 q 295 756 301 766 q 288 729 288 747 l 288 658 l 729 658 l 729 606 l 618 495 l 288 495 l 288 420 l 729 420 l 729 368 l 618 258 l 288 258 z "},"₧":{"ha":983,"x_min":-17,"x_max":899,"o":"m 119 183 l 119 963 l 543 963 q 795 859 691 963 q 899 610 899 755 q 795 361 899 465 q 543 258 691 258 l 356 258 l 356 454 l 543 454 q 650 499 605 454 q 695 610 695 545 q 650 721 695 676 q 543 766 605 766 l 322 766 l 322 183 l 526 183 l 526 131 l 381 -14 l 322 -14 l 322 -217 l 263 -217 l 119 -73 l 119 -14 l -17 -14 l -17 183 l 119 183 z "},"€":{"ha":983,"x_min":-17,"x_max":899,"o":"m 351 258 q 543 183 432 183 l 899 183 l 899 131 l 754 -14 l 543 -14 q 195 130 338 -14 q 100 258 132 193 l -17 258 l -17 454 l 51 454 l 51 495 l -17 495 l -17 692 l 100 692 q 195 820 132 757 q 543 963 338 963 l 899 963 l 899 911 l 754 766 l 543 766 q 351 692 432 766 l 831 692 l 831 640 l 686 495 l 254 495 l 254 454 l 831 454 l 831 402 l 686 258 l 351 258 z "},"№":{"ha":1322,"x_min":51,"x_max":1305,"o":"m 186 781 l 186 461 l 51 461 l 51 963 l 195 963 l 458 644 l 458 963 l 593 963 l 593 461 l 449 461 l 186 781 m 916 461 q 735 535 809 461 q 661 712 661 609 q 735 889 661 815 q 916 963 809 963 l 1051 963 q 1232 889 1158 963 q 1305 712 1305 815 q 1232 535 1305 609 q 1051 461 1158 461 l 916 461 m 916 834 q 832 799 867 834 q 797 712 797 764 q 832 625 797 661 q 916 590 867 590 l 1051 590 q 1135 625 1099 590 q 1170 712 1170 661 q 1135 799 1170 764 q 1051 834 1099 834 l 916 834 z "},"™":{"ha":1187,"x_min":51,"x_max":1170,"o":"m 203 334 l 203 834 l 51 834 l 51 963 l 492 963 l 492 834 l 339 834 l 339 470 l 203 334 m 695 689 l 695 461 l 559 461 l 559 963 l 741 963 l 865 650 l 988 963 l 1170 963 l 1170 461 l 1034 461 l 1034 689 l 945 461 l 785 461 l 695 689 z "},"∂":{"ha":1119,"x_min":0,"x_max":1017,"o":"m 136 0 q 0 136 0 0 l 0 882 q 136 1017 0 1017 l 882 1017 q 1017 882 1017 1017 l 1017 136 q 882 0 1017 0 l 136 0 m 882 17 q 1000 136 1000 17 l 1000 882 q 882 1000 1000 1000 l 136 1000 q 17 882 18 1000 l 17 136 q 136 17 18 17 l 882 17 z "},"∆":{"ha":1119,"x_min":0,"x_max":1017,"o":"m 136 0 q 0 136 0 0 l 0 882 q 136 1017 0 1017 l 882 1017 q 1017 882 1017 1017 l 1017 136 q 882 0 1017 0 l 136 0 m 882 17 q 1000 136 1000 17 l 1000 882 q 882 1000 1000 1000 l 136 1000 q 17 882 18 1000 l 17 136 q 136 17 18 17 l 882 17 z "},"∏":{"ha":1119,"x_min":0,"x_max":1017,"o":"m 136 0 q 0 136 0 0 l 0 882 q 136 1017 0 1017 l 882 1017 q 1017 882 1017 1017 l 1017 136 q 882 0 1017 0 l 136 0 m 882 17 q 1000 136 1000 17 l 1000 882 q 882 1000 1000 1000 l 136 1000 q 17 882 18 1000 l 17 136 q 136 17 18 17 l 882 17 z "},"∑":{"ha":1119,"x_min":0,"x_max":1017,"o":"m 136 0 q 0 136 0 0 l 0 882 q 136 1017 0 1017 l 882 1017 q 1017 882 1017 1017 l 1017 136 q 882 0 1017 0 l 136 0 m 882 17 q 1000 136 1000 17 l 1000 882 q 882 1000 1000 1000 l 136 1000 q 17 882 18 1000 l 17 136 q 136 17 18 17 l 882 17 z "},"−":{"ha":916,"x_min":-17,"x_max":831,"o":"m 831 590 l 831 538 l 686 393 l -17 393 l -17 590 l 831 590 z "},"≈":{"ha":1119,"x_min":0,"x_max":1017,"o":"m 136 0 q 0 136 0 0 l 0 882 q 136 1017 0 1017 l 882 1017 q 1017 882 1017 1017 l 1017 136 q 882 0 1017 0 l 136 0 m 882 17 q 1000 136 1000 17 l 1000 882 q 882 1000 1000 1000 l 136 1000 q 17 882 18 1000 l 17 136 q 136 17 18 17 l 882 17 z "},"≤":{"ha":1119,"x_min":0,"x_max":1017,"o":"m 136 0 q 0 136 0 0 l 0 882 q 136 1017 0 1017 l 882 1017 q 1017 882 1017 1017 l 1017 136 q 882 0 1017 0 l 136 0 m 882 17 q 1000 136 1000 17 l 1000 882 q 882 1000 1000 1000 l 136 1000 q 17 882 18 1000 l 17 136 q 136 17 18 17 l 882 17 z "},"≥":{"ha":1119,"x_min":0,"x_max":1017,"o":"m 136 0 q 0 136 0 0 l 0 882 q 136 1017 0 1017 l 882 1017 q 1017 882 1017 1017 l 1017 136 q 882 0 1017 0 l 136 0 m 882 17 q 1000 136 1000 17 l 1000 882 q 882 1000 1000 1000 l 136 1000 q 17 882 18 1000 l 17 136 q 136 17 18 17 l 882 17 z "},"":{"ha":694,"x_min":0,"x_max":0,"o":""},"ﬁ":{"ha":694,"x_min":0,"x_max":0,"o":""},"":{"ha":699,"x_min":0,"x_max":0,"o":""},"ﬂ":{"ha":699,"x_min":0,"x_max":0,"o":""},"Œ":{"ha":1831,"x_min":-17,"x_max":1746,"o":"m 610 183 q 813 268 728 183 q 899 475 899 353 q 813 681 899 596 q 610 766 728 766 l 475 766 q 272 681 357 766 q 186 475 186 596 q 272 268 186 353 q 475 183 357 183 l 610 183 m 1746 556 l 1746 504 l 1636 393 l 1136 393 l 1136 556 l 1746 556 m 899 77 q 610 -14 793 -14 l 475 -14 q 126 130 270 -14 q -17 475 -17 273 q 126 820 -17 676 q 475 963 270 963 l 610 963 q 899 873 793 963 l 899 963 l 1746 963 l 1746 911 l 1602 766 l 1102 766 l 1102 183 l 1746 183 l 1746 131 l 1602 -14 l 899 -14 l 899 77 z "},"œ":{"ha":1356,"x_min":-17,"x_max":1272,"o":"m 407 183 q 514 228 469 183 q 559 339 559 273 q 514 450 559 405 q 408 495 469 495 l 339 495 q 232 450 277 495 q 186 339 186 405 q 232 228 186 273 q 339 183 277 183 l 407 183 m 659 95 q 408 -14 555 -14 l 339 -14 q 87 90 191 -14 q -17 339 -17 194 q 87 588 -17 484 q 339 692 191 692 l 408 692 q 664 589 555 692 q 916 692 767 692 l 1051 692 q 1207 628 1143 692 q 1272 475 1272 564 q 1207 322 1272 386 q 1051 258 1143 258 l 797 258 l 797 310 l 907 420 l 1051 420 q 1062 430 1055 420 q 1068 458 1068 440 q 1062 485 1068 475 q 1051 495 1055 495 l 916 495 q 808 450 853 495 q 763 339 763 405 q 808 228 763 273 q 916 183 853 183 l 1272 183 l 1272 131 l 1127 -14 l 916 -14 q 659 95 767 -14 z "},"‰":{"ha":1424,"x_min":-66,"x_max":1339,"o":"m 271 590 q 331 615 305 590 q 356 678 356 641 q 331 741 356 715 q 271 766 305 766 q 212 741 237 766 q 186 678 186 715 q 212 615 186 641 q 271 590 237 590 m 678 183 q 738 209 712 183 q 763 271 763 234 q 738 334 763 309 q 678 359 712 359 q 619 334 644 359 q 593 271 593 309 q 619 209 593 234 q 678 183 644 183 m 1051 183 q 1111 209 1085 183 q 1136 271 1136 234 q 1111 334 1136 309 q 1051 359 1085 359 q 992 334 1017 359 q 966 271 966 309 q 992 209 966 234 q 1051 183 1017 183 m 669 559 l 663 557 q 678 556 663 556 q 865 490 794 556 q 1051 556 935 556 q 1256 472 1172 556 q 1339 271 1339 389 q 1256 70 1339 154 q 1051 -14 1172 -14 q 865 53 935 -14 q 678 -14 794 -14 q 474 70 557 -14 q 390 233 390 154 l 178 -14 l -66 -14 l 281 391 l 287 392 q 271 393 287 393 q 67 477 151 393 q -17 678 -17 561 q 67 879 -17 795 q 271 963 151 963 q 476 879 392 963 q 559 716 559 795 l 771 963 l 1015 963 l 669 559 z "}}}
